  0
SECTION
  2
HEADER
  9
$ACADVER
  1
AC1006
  9
$EXTMIN
 10
0.000000
 20
0.000000
 30
0.000000
  9
$EXTMAX
 10
4000.000000
 20
4000.000000
 30
0.000000
  0
ENDSEC
  0
SECTION
  2
ENTITIES
  0
POLYLINE
  8
0
 66
1
 70
1
  0
VERTEX
  8
0
 10
0.000000
 20
2000.000000
 42
0.000000
  0
VERTEX
  8
0
 10
0.000000
 20
0.000000
 42
0.000000
  0
VERTEX
  8
0
 10
2000.000000
 20
0.000000
 42
0.000000
  0
VERTEX
  8
0
 10
4000.000000
 20
0.000000
 42
0.000000
  0
VERTEX
  8
0
 10
4000.000000
 20
2000.000000
 42
0.000000
  0
VERTEX
  8
0
 10
4000.000000
 20
4000.000000
 42
0.000000
  0
VERTEX
  8
0
 10
2000.000000
 20
4000.000000
 42
0.000000
  0
VERTEX
  8
0
 10
0.000000
 20
4000.000000
 42
0.000000
  0
SEQEND
  0
POLYLINE
  8
0
 66
1
 70
1
  0
VERTEX
  8
0
 10
1699.248445
 20
3559.250000
 42
0.000000
  0
VERTEX
  8
0
 10
1699.500000
 20
3241.500000
 42
0.000000
  0
VERTEX
  8
0
 10
2439.250000
 20
3241.249328
 42
0.000000
  0
VERTEX
  8
0
 10
3179.000000
 20
3240.998655
 42
0.000000
  0
VERTEX
  8
0
 10
3179.000000
 20
2045.000000
 42
0.000000
  0
VERTEX
  8
0
 10
3179.000000
 20
849.001345
 42
0.000000
  0
VERTEX
  8
0
 10
2439.250000
 20
848.750672
 42
0.000000
  0
VERTEX
  8
0
 10
1699.500000
 20
848.500000
 42
0.000000
  0
VERTEX
  8
0
 10
1699.248516
 20
515.250000
 42
0.000000
  0
VERTEX
  8
0
 10
1698.997033
 20
182.000000
 42
0.000000
  0
VERTEX
  8
0
 10
1489.557533
 20
182.000000
 42
-0.000336
  0
VERTEX
  8
0
 10
1409.217834
 20
182.053908
 42
-0.000558
  0
VERTEX
  8
0
 10
1341.511831
 20
182.220313
 42
-0.000015
  0
VERTEX
  8
0
 10
1280.215311
 20
182.441140
 42
-0.265289
  0
VERTEX
  8
0
 10
1279.678696
 20
182.750000
 42
-0.140148
  0
VERTEX
  8
0
 10
1279.507810
 20
183.415303
 42
-0.000004
  0
VERTEX
  8
0
 10
1282.113022
 20
279.629688
 42
-0.000219
  0
VERTEX
  8
0
 10
1285.031649
 20
385.676939
 42
-0.000131
  0
VERTEX
  8
0
 10
1288.582707
 20
511.500000
 42
0.000028
  0
VERTEX
  8
0
 10
1292.167593
 20
637.596577
 42
0.000046
  0
VERTEX
  8
0
 10
1295.192309
 20
744.545313
 42
0.000004
  0
VERTEX
  8
0
 10
1297.894032
 20
840.411892
 42
0.005096
  0
VERTEX
  8
0
 10
1297.963029
 20
844.250000
 42
0.000000
  0
VERTEX
  8
0
 10
1298.000000
 20
849.000000
 42
0.000000
  0
VERTEX
  8
0
 10
1035.630990
 20
849.000000
 42
-0.000173
  0
VERTEX
  8
0
 10
839.977045
 20
849.067563
 42
-0.005120
  0
VERTEX
  8
0
 10
790.386823
 20
849.609620
 42
-0.021025
  0
VERTEX
  8
0
 10
764.760155
 20
851.231744
 42
-0.051081
  0
VERTEX
  8
0
 10
746.241172
 20
855.127277
 42
-0.024601
  0
VERTEX
  8
0
 10
733.757358
 20
859.806212
 42
-0.031628
  0
VERTEX
  8
0
 10
722.836350
 20
865.367773
 42
-0.031702
  0
VERTEX
  8
0
 10
712.723998
 20
872.251046
 42
-0.024901
  0
VERTEX
  8
0
 10
702.672847
 20
880.904574
 42
-0.035491
  0
VERTEX
  8
0
 10
690.943725
 20
893.769827
 42
-0.037268
  0
VERTEX
  8
0
 10
681.361291
 20
907.965020
 42
-0.037145
  0
VERTEX
  8
0
 10
673.966103
 20
923.470698
 42
-0.034779
  0
VERTEX
  8
0
 10
668.755491
 20
940.241481
 42
0.000000
  0
VERTEX
  8
0
 10
666.570960
 20
949.500000
 42
0.000000
  0
VERTEX
  8
0
 10
666.252455
 20
1125.500000
 42
-0.000231
  0
VERTEX
  8
0
 10
666.114723
 20
1227.633477
 42
-0.001914
  0
VERTEX
  8
0
 10
666.250989
 20
1273.970681
 42
-0.003041
  0
VERTEX
  8
0
 10
666.600745
 20
1301.187374
 42
-0.031479
  0
VERTEX
  8
0
 10
667.517292
 20
1312.357659
 42
-0.037297
  0
VERTEX
  8
0
 10
671.704608
 20
1331.138771
 42
-0.042033
  0
VERTEX
  8
0
 10
678.526202
 20
1348.320425
 42
-0.042194
  0
VERTEX
  8
0
 10
688.098342
 20
1364.063524
 42
-0.038118
  0
VERTEX
  8
0
 10
700.478499
 20
1378.559505
 42
-0.033004
  0
VERTEX
  8
0
 10
712.078190
 20
1388.769758
 42
-0.035674
  0
VERTEX
  8
0
 10
724.634879
 20
1397.077052
 42
-0.034121
  0
VERTEX
  8
0
 10
738.742770
 20
1403.804137
 42
-0.025843
  0
VERTEX
  8
0
 10
755.000000
 20
1409.282907
 42
-0.053842
  0
VERTEX
  8
0
 10
762.865185
 20
1410.599001
 42
-0.009459
  0
VERTEX
  8
0
 10
777.870217
 20
1411.188949
 42
-0.003663
  0
VERTEX
  8
0
 10
805.895119
 20
1411.554743
 42
-0.000236
  0
VERTEX
  8
0
 10
887.500000
 20
1411.983388
 42
0.000227
  0
VERTEX
  8
0
 10
970.228577
 20
1412.416428
 42
0.003803
  0
VERTEX
  8
0
 10
997.655439
 20
1412.781062
 42
0.010532
  0
VERTEX
  8
0
 10
1012.226129
 20
1413.392835
 42
0.052477
  0
VERTEX
  8
0
 10
1020.286718
 20
1414.758927
 42
0.050450
  0
VERTEX
  8
0
 10
1034.610186
 20
1420.373132
 42
0.050683
  0
VERTEX
  8
0
 10
1047.495259
 20
1428.735115
 42
0.051549
  0
VERTEX
  8
0
 10
1058.241881
 20
1439.364932
 42
0.056096
  0
VERTEX
  8
0
 10
1066.241302
 20
1451.687710
 42
0.014979
  0
VERTEX
  8
0
 10
1068.118233
 20
1455.740065
 42
0.011082
  0
VERTEX
  8
0
 10
1069.958008
 20
1460.324515
 42
0.011222
  0
VERTEX
  8
0
 10
1071.503736
 20
1464.735878
 42
0.024598
  0
VERTEX
  8
0
 10
1072.441983
 20
1468.187710
 42
0.053200
  0
VERTEX
  8
0
 10
1073.494966
 20
1477.729265
 42
0.000329
  0
VERTEX
  8
0
 10
1073.751674
 20
1564.608173
 42
0.000633
  0
VERTEX
  8
0
 10
1073.896590
 20
1705.227001
 42
0.000061
  0
VERTEX
  8
0
 10
1073.774052
 20
2048.000000
 42
0.000000
  0
VERTEX
  8
0
 10
1073.500000
 20
2620.500000
 42
0.000000
  0
VERTEX
  8
0
 10
1070.684063
 20
2628.500000
 42
0.029742
  0
VERTEX
  8
0
 10
1067.285136
 20
2636.586177
 42
0.030103
  0
VERTEX
  8
0
 10
1062.962737
 20
2644.178123
 42
0.030065
  0
VERTEX
  8
0
 10
1057.754172
 20
2651.204957
 42
0.029498
  0
VERTEX
  8
0
 10
1051.709288
 20
2657.603783
 42
0.033986
  0
VERTEX
  8
0
 10
1042.531022
 20
2665.131352
 42
0.041749
  0
VERTEX
  8
0
 10
1033.003147
 20
2670.784683
 42
0.042640
  0
VERTEX
  8
0
 10
1022.843676
 20
2674.688227
 42
0.038133
  0
VERTEX
  8
0
 10
1011.782172
 20
2676.992504
 42
0.029839
  0
VERTEX
  8
0
 10
1006.057774
 20
2677.390923
 42
0.000478
  0
VERTEX
  8
0
 10
973.620391
 20
2677.678679
 42
0.001210
  0
VERTEX
  8
0
 10
934.896942
 20
2677.891436
 42
0.000702
  0
VERTEX
  8
0
 10
888.380990
 20
2677.969124
 42
-0.000549
  0
VERTEX
  8
0
 10
803.648450
 20
2678.084705
 42
-0.009918
  0
VERTEX
  8
0
 10
776.535652
 20
2678.689343
 42
-0.031252
  0
VERTEX
  8
0
 10
760.597232
 20
2680.362852
 42
-0.035959
  0
VERTEX
  8
0
 10
745.741172
 20
2683.982388
 42
-0.067634
  0
VERTEX
  8
0
 10
718.402448
 20
2697.051639
 42
-0.066708
  0
VERTEX
  8
0
 10
695.398884
 20
2716.993039
 42
-0.066159
  0
VERTEX
  8
0
 10
678.306817
 20
2742.452280
 42
-0.064661
  0
VERTEX
  8
0
 10
668.293859
 20
2771.688010
 42
-0.043824
  0
VERTEX
  8
0
 10
667.191449
 20
2781.381946
 42
-0.004023
  0
VERTEX
  8
0
 10
666.764813
 20
2805.623455
 42
-0.002199
  0
VERTEX
  8
0
 10
666.541820
 20
2848.892244
 42
-0.000189
  0
VERTEX
  8
0
 10
666.500000
 20
2959.500000
 42
-0.000177
  0
VERTEX
  8
0
 10
666.540151
 20
3072.670679
 42
-0.002330
  0
VERTEX
  8
0
 10
666.765203
 20
3114.587532
 42
-0.004777
  0
VERTEX
  8
0
 10
667.216348
 20
3137.623518
 42
-0.044371
  0
VERTEX
  8
0
 10
668.385398
 20
3147.500000
 42
-0.066694
  0
VERTEX
  8
0
 10
679.483815
 20
3178.905372
 42
-0.072661
  0
VERTEX
  8
0
 10
698.229495
 20
3205.277219
 42
-0.072139
  0
VERTEX
  8
0
 10
723.865882
 20
3225.328154
 42
-0.064378
  0
VERTEX
  8
0
 10
755.136923
 20
3238.223952
 42
0.000000
  0
VERTEX
  8
0
 10
763.500000
 20
3240.471659
 42
0.000000
  0
VERTEX
  8
0
 10
1030.500000
 20
3240.985829
 42
0.000000
  0
VERTEX
  8
0
 10
1297.500000
 20
3241.500000
 42
0.000000
  0
VERTEX
  8
0
 10
1297.751555
 20
3559.250000
 42
0.000000
  0
VERTEX
  8
0
 10
1298.003110
 20
3877.000000
 42
0.000000
  0
VERTEX
  8
0
 10
1498.500000
 20
3877.000000
 42
0.000000
  0
VERTEX
  8
0
 10
1698.996890
 20
3877.000000
 42
0.000000
  0
SEQEND
  0
POLYLINE
  8
0
 66
1
 70
1
  0
VERTEX
  8
0
 10
1601.424322
 20
3764.004291
 42
0.045418
  0
VERTEX
  8
0
 10
1596.250297
 20
3761.385724
 42
0.049066
  0
VERTEX
  8
0
 10
1591.777365
 20
3757.933273
 42
0.048229
  0
VERTEX
  8
0
 10
1588.000604
 20
3753.618601
 42
0.041315
  0
VERTEX
  8
0
 10
1584.894940
 20
3748.438157
 42
0.071945
  0
VERTEX
  8
0
 10
1581.978301
 20
3739.451429
 42
0.081819
  0
VERTEX
  8
0
 10
1581.915833
 20
3730.407925
 42
0.081815
  0
VERTEX
  8
0
 10
1584.757642
 20
3721.821947
 42
0.071930
  0
VERTEX
  8
0
 10
1590.297843
 20
3714.167478
 42
0.055922
  0
VERTEX
  8
0
 10
1596.293970
 20
3709.229294
 42
0.061701
  0
VERTEX
  8
0
 10
1603.047242
 20
3705.933954
 42
0.064224
  0
VERTEX
  8
0
 10
1610.152135
 20
3704.475558
 42
0.069888
  0
VERTEX
  8
0
 10
1617.185546
 20
3704.935966
 42
0.060358
  0
VERTEX
  8
0
 10
1625.011178
 20
3707.577040
 42
0.063295
  0
VERTEX
  8
0
 10
1631.843135
 20
3711.980043
 42
0.063883
  0
VERTEX
  8
0
 10
1637.305230
 20
3717.910583
 42
0.063482
  0
VERTEX
  8
0
 10
1641.107181
 20
3725.039957
 42
0.099797
  0
VERTEX
  8
0
 10
1642.853975
 20
3735.583388
 42
0.089434
  0
VERTEX
  8
0
 10
1640.506458
 20
3746.429762
 42
0.087499
  0
VERTEX
  8
0
 10
1634.445382
 20
3755.967677
 42
0.090026
  0
VERTEX
  8
0
 10
1625.540146
 20
3762.745644
 42
0.058609
  0
VERTEX
  8
0
 10
1619.935232
 20
3764.816599
 42
0.046209
  0
VERTEX
  8
0
 10
1613.528915
 20
3765.748782
 42
0.046438
  0
VERTEX
  8
0
 10
1607.098730
 20
3765.487152
 42
0.061143
  0
SEQEND
  0
POLYLINE
  8
0
 66
1
 70
1
  0
VERTEX
  8
0
 10
1601.885071
 20
3430.620380
 42
0.058052
  0
VERTEX
  8
0
 10
1596.477755
 20
3427.946780
 42
0.046378
  0
VERTEX
  8
0
 10
1591.369326
 20
3423.917425
 42
0.045804
  0
VERTEX
  8
0
 10
1587.026380
 20
3418.952847
 42
0.052765
  0
VERTEX
  8
0
 10
1583.891728
 20
3413.500000
 42
0.060804
  0
VERTEX
  8
0
 10
1582.161076
 20
3407.801358
 42
0.045895
  0
VERTEX
  8
0
 10
1581.626895
 20
3401.274464
 42
0.046224
  0
VERTEX
  8
0
 10
1582.290479
 20
3394.819683
 42
0.065018
  0
VERTEX
  8
0
 10
1584.134875
 20
3389.340046
 42
0.136061
  0
VERTEX
  8
0
 10
1595.999306
 20
3375.948140
 42
0.149105
  0
VERTEX
  8
0
 10
1612.643948
 20
3371.174257
 42
0.149047
  0
VERTEX
  8
0
 10
1629.124572
 20
3376.501292
 42
0.135932
  0
VERTEX
  8
0
 10
1640.546532
 20
3390.283036
 42
0.017486
  0
VERTEX
  8
0
 10
1641.967077
 20
3393.769933
 42
0.044376
  0
VERTEX
  8
0
 10
1642.677952
 20
3396.408138
 42
0.044234
  0
VERTEX
  8
0
 10
1642.913338
 20
3399.135306
 42
0.017280
  0
VERTEX
  8
0
 10
1642.773856
 20
3402.916578
 42
0.061786
  0
VERTEX
  8
0
 10
1641.094359
 20
3411.427006
 42
0.069722
  0
VERTEX
  8
0
 10
1637.416449
 20
3418.897752
 42
0.070322
  0
VERTEX
  8
0
 10
1631.858626
 20
3425.020067
 42
0.064470
  0
VERTEX
  8
0
 10
1624.664281
 20
3429.575950
 42
0.061005
  0
VERTEX
  8
0
 10
1619.624269
 20
3431.212082
 42
0.036571
  0
VERTEX
  8
0
 10
1613.365869
 20
3431.959909
 42
0.036564
  0
VERTEX
  8
0
 10
1607.062552
 20
3431.787928
 42
0.060786
  0
SEQEND
  0
POLYLINE
  8
0
 66
1
 70
1
  0
VERTEX
  8
0
 10
2420.780470
 20
3200.969242
 42
0.077564
  0
VERTEX
  8
0
 10
2410.106234
 20
3197.412416
 42
0.075273
  0
VERTEX
  8
0
 10
2400.899898
 20
3190.746002
 42
0.074458
  0
VERTEX
  8
0
 10
2394.000982
 20
3181.579297
 42
0.073334
  0
VERTEX
  8
0
 10
2390.045362
 20
3170.746817
 42
0.127829
  0
VERTEX
  8
0
 10
2390.914674
 20
3153.570280
 42
0.115697
  0
VERTEX
  8
0
 10
2399.998498
 20
3138.250475
 42
0.115465
  0
VERTEX
  8
0
 10
2414.964232
 20
3128.545699
 42
0.126940
  0
VERTEX
  8
0
 10
2432.144350
 20
3126.945844
 42
0.064561
  0
VERTEX
  8
0
 10
2440.909876
 20
3129.548400
 42
0.058534
  0
VERTEX
  8
0
 10
2449.043090
 20
3134.363028
 42
0.058185
  0
VERTEX
  8
0
 10
2455.882522
 20
3140.964137
 42
0.062211
  0
VERTEX
  8
0
 10
2460.839593
 20
3148.824854
 42
0.023370
  0
VERTEX
  8
0
 10
2462.256900
 20
3152.256904
 42
0.042922
  0
VERTEX
  8
0
 10
2463.031128
 20
3155.177801
 42
0.033789
  0
VERTEX
  8
0
 10
2463.396862
 20
3158.622995
 42
0.009552
  0
VERTEX
  8
0
 10
2463.500000
 20
3164.021027
 42
0.009451
  0
VERTEX
  8
0
 10
2463.392421
 20
3169.712043
 42
0.040299
  0
VERTEX
  8
0
 10
2462.991323
 20
3173.085101
 42
0.047732
  0
VERTEX
  8
0
 10
2462.086241
 20
3176.071135
 42
0.016945
  0
VERTEX
  8
0
 10
2460.250067
 20
3180.143605
 42
0.080001
  0
VERTEX
  8
0
 10
2453.350011
 20
3189.867702
 42
0.077277
  0
VERTEX
  8
0
 10
2443.671093
 20
3197.070458
 42
0.078224
  0
VERTEX
  8
0
 10
2432.374672
 20
3200.931980
 42
0.085226
  0
SEQEND
  0
POLYLINE
  8
0
 66
1
 70
1
  0
VERTEX
  8
0
 10
1145.276524
 20
3196.984022
 42
0.083440
  0
VERTEX
  8
0
 10
1138.293020
 20
3194.277006
 42
0.064198
  0
VERTEX
  8
0
 10
1131.846768
 20
3189.227272
 42
0.063312
  0
VERTEX
  8
0
 10
1126.809071
 20
3182.622598
 42
0.075926
  0
VERTEX
  8
0
 10
1123.958638
 20
3175.351138
 42
0.097872
  0
VERTEX
  8
0
 10
1123.699183
 20
3165.712056
 42
0.085959
  0
VERTEX
  8
0
 10
1127.058519
 20
3156.206488
 42
0.085881
  0
VERTEX
  8
0
 10
1133.422675
 20
3148.377332
 42
0.097435
  0
VERTEX
  8
0
 10
1141.794728
 20
3143.554276
 42
0.117479
  0
VERTEX
  8
0
 10
1154.934400
 20
3142.308719
 42
0.118422
  0
VERTEX
  8
0
 10
1167.180941
 20
3147.130971
 42
0.119410
  0
VERTEX
  8
0
 10
1175.829438
 20
3156.947282
 42
0.120817
  0
VERTEX
  8
0
 10
1178.978038
 20
3169.590278
 42
0.114315
  0
VERTEX
  8
0
 10
1176.271216
 20
3181.469600
 42
0.109586
  0
VERTEX
  8
0
 10
1168.593493
 20
3191.161040
 42
0.109272
  0
VERTEX
  8
0
 10
1157.517343
 20
3196.715586
 42
0.113093
  0
SEQEND
  0
POLYLINE
  8
0
 66
1
 70
1
  0
VERTEX
  8
0
 10
2195.734467
 20
3196.949216
 42
0.126587
  0
VERTEX
  8
0
 10
2182.538281
 20
3189.866922
 42
0.134223
  0
VERTEX
  8
0
 10
2174.751507
 20
3177.434142
 42
0.137028
  0
VERTEX
  8
0
 10
2174.457494
 20
3162.973817
 42
0.134138
  0
VERTEX
  8
0
 10
2181.682328
 20
3150.317672
 42
0.039766
  0
VERTEX
  8
0
 10
2185.754788
 20
3146.846155
 42
0.053118
  0
VERTEX
  8
0
 10
2189.966710
 20
3144.433000
 42
0.052091
  0
VERTEX
  8
0
 10
2194.658026
 20
3142.929952
 42
0.036289
  0
VERTEX
  8
0
 10
2200.173123
 20
3142.189722
 42
0.016677
  0
VERTEX
  8
0
 10
2203.873129
 20
3142.087855
 42
0.040537
  0
VERTEX
  8
0
 10
2206.591432
 20
3142.324549
 42
0.043485
  0
VERTEX
  8
0
 10
2209.121102
 20
3142.983427
 42
0.021908
  0
VERTEX
  8
0
 10
2212.179208
 20
3144.224506
 42
0.088017
  0
VERTEX
  8
0
 10
2220.903821
 20
3150.256509
 42
0.094982
  0
VERTEX
  8
0
 10
2226.746194
 20
3158.779742
 42
0.095490
  0
VERTEX
  8
0
 10
2229.003055
 20
3168.820017
 42
0.090017
  0
VERTEX
  8
0
 10
2227.445724
 20
3179.205272
 42
0.100679
  0
VERTEX
  8
0
 10
2222.625208
 20
3187.449992
 42
0.082913
  0
VERTEX
  8
0
 10
2214.658835
 20
3193.834193
 42
0.083533
  0
VERTEX
  8
0
 10
2205.110421
 20
3197.249095
 42
0.104761
  0
SEQEND
  0
POLYLINE
  8
0
 66
1
 70
1
  0
VERTEX
  8
0
 10
845.695849
 20
3171.029315
 42
0.085535
  0
VERTEX
  8
0
 10
836.556405
 20
3165.511714
 42
0.085442
  0
VERTEX
  8
0
 10
829.786984
 20
3157.251424
 42
0.085974
  0
VERTEX
  8
0
 10
826.198182
 20
3147.250381
 42
0.088073
  0
VERTEX
  8
0
 10
826.226502
 20
3136.712247
 42
0.101211
  0
VERTEX
  8
0
 10
830.567810
 20
3125.846665
 42
0.094692
  0
VERTEX
  8
0
 10
838.907786
 20
3117.257386
 42
0.095112
  0
VERTEX
  8
0
 10
849.792334
 20
3112.375128
 42
0.103209
  0
VERTEX
  8
0
 10
861.386510
 20
3112.070088
 42
0.080601
  0
VERTEX
  8
0
 10
871.043098
 20
3115.488591
 42
0.083655
  0
VERTEX
  8
0
 10
878.983682
 20
3121.753971
 42
0.084057
  0
VERTEX
  8
0
 10
884.404883
 20
3130.246574
 42
0.082434
  0
VERTEX
  8
0
 10
886.775633
 20
3140.108261
 42
0.042627
  0
VERTEX
  8
0
 10
886.688828
 20
3146.409610
 42
0.058167
  0
VERTEX
  8
0
 10
885.477157
 20
3151.953375
 42
0.058059
  0
VERTEX
  8
0
 10
883.018883
 20
3157.076713
 42
0.042262
  0
VERTEX
  8
0
 10
879.201878
 20
3162.120359
 42
0.068647
  0
VERTEX
  8
0
 10
871.886150
 20
3168.299935
 42
0.076260
  0
VERTEX
  8
0
 10
863.419169
 20
3172.001142
 42
0.078639
  0
VERTEX
  8
0
 10
854.457714
 20
3172.926746
 42
0.079783
  0
SEQEND
  0
POLYLINE
  8
0
 66
1
 70
1
  0
VERTEX
  8
0
 10
2570.672961
 20
2928.836541
 42
0.119115
  0
VERTEX
  8
0
 10
2559.371422
 20
2923.746278
 42
0.110420
  0
VERTEX
  8
0
 10
2551.264953
 20
2913.935167
 42
0.112021
  0
VERTEX
  8
0
 10
2548.180992
 20
2901.729422
 42
0.125589
  0
VERTEX
  8
0
 10
2550.885517
 20
2889.939850
 42
0.112007
  0
VERTEX
  8
0
 10
2559.845209
 20
2879.269084
 42
0.125937
  0
VERTEX
  8
0
 10
2572.169900
 20
2874.077120
 42
0.128547
  0
VERTEX
  8
0
 10
2585.276875
 20
2875.492154
 42
0.119375
  0
VERTEX
  8
0
 10
2596.437404
 20
2883.141603
 42
0.089181
  0
VERTEX
  8
0
 10
2602.050408
 20
2892.206499
 42
0.098967
  0
VERTEX
  8
0
 10
2603.884415
 20
2902.329043
 42
0.100803
  0
VERTEX
  8
0
 10
2601.680626
 20
2912.231383
 42
0.096041
  0
VERTEX
  8
0
 10
2595.759563
 20
2920.677828
 42
0.048036
  0
VERTEX
  8
0
 10
2589.951920
 20
2925.296922
 42
0.065460
  0
VERTEX
  8
0
 10
2583.919883
 20
2928.174845
 42
0.067986
  0
VERTEX
  8
0
 10
2577.532274
 20
2929.328414
 42
0.057308
  0
SEQEND
  0
POLYLINE
  8
0
 66
1
 70
1
  0
VERTEX
  8
0
 10
3047.296539
 20
2928.971798
 42
0.115606
  0
VERTEX
  8
0
 10
3036.160710
 20
2923.863558
 42
0.108683
  0
VERTEX
  8
0
 10
3028.154196
 20
2914.241454
 42
0.110025
  0
VERTEX
  8
0
 10
3024.986120
 20
2902.251423
 42
0.121061
  0
VERTEX
  8
0
 10
3027.390237
 20
2890.500000
 42
0.135451
  0
VERTEX
  8
0
 10
3037.630802
 20
2878.634173
 42
0.141675
  0
VERTEX
  8
0
 10
3052.329885
 20
2873.957321
 42
0.143642
  0
VERTEX
  8
0
 10
3067.103863
 20
2877.867968
 42
0.140330
  0
VERTEX
  8
0
 10
3077.584200
 20
2889.166160
 42
0.059872
  0
VERTEX
  8
0
 10
3080.052484
 20
2895.940206
 42
0.068240
  0
VERTEX
  8
0
 10
3080.696833
 20
2902.807781
 42
0.068651
  0
VERTEX
  8
0
 10
3079.469289
 20
2909.561139
 42
0.061683
  0
VERTEX
  8
0
 10
3076.437205
 20
2916.000000
 42
0.074193
  0
VERTEX
  8
0
 10
3070.873099
 20
2922.454800
 42
0.073242
  0
VERTEX
  8
0
 10
3063.644110
 20
2927.037846
 42
0.074389
  0
VERTEX
  8
0
 10
3055.506918
 20
2929.292547
 42
0.080597
  0
SEQEND
  0
POLYLINE
  8
0
 66
1
 70
1
  0
VERTEX
  8
0
 10
1331.702676
 20
2835.557676
 42
0.101441
  0
VERTEX
  8
0
 10
1320.859902
 20
2828.986819
 42
0.103524
  0
VERTEX
  8
0
 10
1313.570863
 20
2818.721821
 42
0.105809
  0
VERTEX
  8
0
 10
1311.107246
 20
2806.588063
 42
0.110527
  0
VERTEX
  8
0
 10
1313.895605
 20
2794.715651
 42
0.097067
  0
VERTEX
  8
0
 10
1321.276893
 20
2784.891685
 42
0.100450
  0
VERTEX
  8
0
 10
1331.738206
 20
2778.724600
 42
0.102623
  0
VERTEX
  8
0
 10
1343.585629
 20
2777.200812
 42
0.105847
  0
VERTEX
  8
0
 10
1354.918428
 20
2780.552120
 42
0.038842
  0
VERTEX
  8
0
 10
1359.317464
 20
2783.409622
 42
0.044872
  0
VERTEX
  8
0
 10
1362.996599
 20
2786.792039
 42
0.043622
  0
VERTEX
  8
0
 10
1366.093739
 20
2790.861736
 42
0.033512
  0
VERTEX
  8
0
 10
1368.754611
 20
2795.775178
 42
0.064925
  0
VERTEX
  8
0
 10
1370.516694
 20
2801.478275
 42
0.050174
  0
VERTEX
  8
0
 10
1370.970429
 20
2807.974595
 42
0.049644
  0
VERTEX
  8
0
 10
1370.117788
 20
2814.509659
 42
0.059737
  0
VERTEX
  8
0
 10
1368.004648
 20
2820.329769
 42
0.092841
  0
VERTEX
  8
0
 10
1361.581524
 20
2828.730782
 42
0.084123
  0
VERTEX
  8
0
 10
1352.343456
 20
2834.587601
 42
0.085392
  0
VERTEX
  8
0
 10
1341.822298
 20
2837.015733
 42
0.100103
  0
SEQEND
  0
POLYLINE
  8
0
 66
1
 70
1
  0
VERTEX
  8
0
 10
847.222196
 20
2779.953169
 42
0.093529
  0
VERTEX
  8
0
 10
837.528911
 20
2772.585391
 42
0.100193
  0
VERTEX
  8
0
 10
831.470351
 20
2762.354057
 42
0.101542
  0
VERTEX
  8
0
 10
829.915149
 20
2750.687509
 42
0.098705
  0
VERTEX
  8
0
 10
833.046831
 20
2739.222196
 42
0.057863
  0
VERTEX
  8
0
 10
837.692204
 20
2732.116515
 42
0.074772
  0
VERTEX
  8
0
 10
843.507619
 20
2726.944336
 42
0.074097
  0
VERTEX
  8
0
 10
850.631007
 20
2723.679687
 42
0.055592
  0
VERTEX
  8
0
 10
859.143004
 20
2722.212039
 42
0.012717
  0
VERTEX
  8
0
 10
863.516609
 20
2722.062228
 42
0.041146
  0
VERTEX
  8
0
 10
866.412625
 20
2722.275290
 42
0.047301
  0
VERTEX
  8
0
 10
869.015002
 20
2722.940386
 42
0.021150
  0
VERTEX
  8
0
 10
872.290965
 20
2724.275670
 42
0.061465
  0
VERTEX
  8
0
 10
879.709844
 20
2728.845784
 42
0.070720
  0
VERTEX
  8
0
 10
885.402504
 20
2734.899054
 42
0.071776
  0
VERTEX
  8
0
 10
889.122031
 20
2742.217897
 42
0.066106
  0
VERTEX
  8
0
 10
890.756708
 20
2750.500000
 42
0.129651
  0
VERTEX
  8
0
 10
887.686834
 20
2766.041897
 42
0.131528
  0
VERTEX
  8
0
 10
877.359817
 20
2777.949526
 42
0.132800
  0
VERTEX
  8
0
 10
862.551423
 20
2783.034307
 42
0.133310
  0
SEQEND
  0
POLYLINE
  8
0
 66
1
 70
1
  0
VERTEX
  8
0
 10
1421.214484
 20
2759.864759
 42
0.060729
  0
VERTEX
  8
0
 10
1415.937898
 20
2757.062644
 42
0.046517
  0
VERTEX
  8
0
 10
1410.948625
 20
2752.839288
 42
0.046212
  0
VERTEX
  8
0
 10
1406.790933
 20
2747.729483
 42
0.057479
  0
VERTEX
  8
0
 10
1403.987181
 20
2742.288715
 42
0.152899
  0
VERTEX
  8
0
 10
1402.999535
 20
2725.146307
 42
0.145848
  0
VERTEX
  8
0
 10
1411.912164
 20
2710.126626
 42
0.146333
  0
VERTEX
  8
0
 10
1427.565765
 20
2702.468508
 42
0.154100
  0
VERTEX
  8
0
 10
1444.500000
 20
2704.879226
 42
0.036858
  0
VERTEX
  8
0
 10
1449.521966
 20
2707.760506
 42
0.051124
  0
VERTEX
  8
0
 10
1453.499138
 20
2711.088226
 42
0.050635
  0
VERTEX
  8
0
 10
1456.745611
 20
2715.179868
 42
0.035243
  0
VERTEX
  8
0
 10
1459.570210
 20
2720.361496
 42
0.018471
  0
VERTEX
  8
0
 10
1460.997884
 20
2723.818034
 42
0.046584
  0
VERTEX
  8
0
 10
1461.701435
 20
2726.445225
 42
0.043755
  0
VERTEX
  8
0
 10
1461.929573
 20
2729.252019
 42
0.014719
  0
VERTEX
  8
0
 10
1461.782438
 20
2733.361496
 42
0.058032
  0
VERTEX
  8
0
 10
1460.275786
 20
2741.587081
 42
0.072472
  0
VERTEX
  8
0
 10
1456.959617
 20
2748.598595
 42
0.072453
  0
VERTEX
  8
0
 10
1451.779744
 20
2754.373584
 42
0.057965
  0
VERTEX
  8
0
 10
1444.777804
 20
2758.953169
 42
0.050975
  0
VERTEX
  8
0
 10
1439.094226
 20
2761.102554
 42
0.055312
  0
VERTEX
  8
0
 10
1433.248192
 20
2761.981185
 42
0.054478
  0
VERTEX
  8
0
 10
1427.274873
 20
2761.561278
 42
0.046994
  0
SEQEND
  0
POLYLINE
  8
0
 66
1
 70
1
  0
VERTEX
  8
0
 10
3072.200326
 20
2708.597774
 42
0.050756
  0
VERTEX
  8
0
 10
3067.502098
 20
2706.893570
 42
0.029260
  0
VERTEX
  8
0
 10
3062.239562
 20
2703.964402
 42
0.029331
  0
VERTEX
  8
0
 10
3057.465223
 20
2700.519415
 42
0.062697
  0
VERTEX
  8
0
 10
3054.331935
 20
2697.235096
 42
0.028957
  0
VERTEX
  8
0
 10
3051.192735
 20
2692.430461
 42
0.044364
  0
VERTEX
  8
0
 10
3049.110808
 20
2687.916804
 42
0.044077
  0
VERTEX
  8
0
 10
3047.849183
 20
2683.084925
 42
0.028123
  0
VERTEX
  8
0
 10
3047.205080
 20
2677.309844
 42
0.011354
  0
VERTEX
  8
0
 10
3047.047485
 20
2672.406938
 42
0.045359
  0
VERTEX
  8
0
 10
3047.291103
 20
2669.414482
 42
0.050524
  0
VERTEX
  8
0
 10
3048.057701
 20
2666.674955
 42
0.016427
  0
VERTEX
  8
0
 10
3049.722289
 20
2662.809844
 42
0.090287
  0
VERTEX
  8
0
 10
3057.777888
 20
2651.516486
 42
0.101475
  0
VERTEX
  8
0
 10
3069.004977
 20
2644.338413
 42
0.104413
  0
VERTEX
  8
0
 10
3081.883591
 20
2642.279578
 42
0.100994
  0
VERTEX
  8
0
 10
3094.663659
 20
2645.554506
 42
0.091256
  0
VERTEX
  8
0
 10
3104.697365
 20
2652.934484
 42
0.091168
  0
VERTEX
  8
0
 10
3111.450179
 20
2663.405469
 42
0.092252
  0
VERTEX
  8
0
 10
3113.986288
 20
2675.483538
 42
0.096221
  0
VERTEX
  8
0
 10
3111.941923
 20
2687.474738
 42
0.093069
  0
VERTEX
  8
0
 10
3105.635153
 20
2697.846822
 42
0.087809
  0
VERTEX
  8
0
 10
3095.880525
 20
2705.475511
 42
0.088371
  0
VERTEX
  8
0
 10
3084.158269
 20
2709.259605
 42
0.095922
  0
SEQEND
  0
POLYLINE
  8
0
 66
1
 70
1
  0
VERTEX
  8
0
 10
2193.734467
 20
2703.922818
 42
0.053410
  0
VERTEX
  8
0
 10
2187.563077
 20
2701.734012
 42
0.056936
  0
VERTEX
  8
0
 10
2182.137814
 20
2698.322841
 42
0.056043
  0
VERTEX
  8
0
 10
2177.552385
 20
2693.722560
 42
0.049057
  0
VERTEX
  8
0
 10
2173.865060
 20
2688.017367
 42
0.071423
  0
VERTEX
  8
0
 10
2172.089880
 20
2682.887317
 42
0.046539
  0
VERTEX
  8
0
 10
2171.478597
 20
2676.639231
 42
0.046700
  0
VERTEX
  8
0
 10
2172.032382
 20
2670.420491
 42
0.074526
  0
VERTEX
  8
0
 10
2173.762878
 20
2665.383530
 42
0.049584
  0
VERTEX
  8
0
 10
2178.265995
 20
2658.492134
 42
0.073871
  0
VERTEX
  8
0
 10
2183.549268
 20
2653.615021
 42
0.076414
  0
VERTEX
  8
0
 10
2189.880215
 20
2650.592372
 42
0.057267
  0
VERTEX
  8
0
 10
2197.494211
 20
2649.218678
 42
0.013787
  0
VERTEX
  8
0
 10
2201.623789
 20
2649.067815
 42
0.041485
  0
VERTEX
  8
0
 10
2204.433506
 20
2649.276055
 42
0.046915
  0
VERTEX
  8
0
 10
2206.977314
 20
2649.927393
 42
0.021738
  0
VERTEX
  8
0
 10
2210.138504
 20
2651.219036
 42
0.065862
  0
VERTEX
  8
0
 10
2217.139087
 20
2655.636354
 42
0.072644
  0
VERTEX
  8
0
 10
2222.486884
 20
2661.596118
 42
0.074034
  0
VERTEX
  8
0
 10
2225.833578
 20
2668.732710
 42
0.072400
  0
VERTEX
  8
0
 10
2226.990231
 20
2676.590278
 42
0.115780
  0
VERTEX
  8
0
 10
2224.239820
 20
2688.393863
 42
0.106244
  0
VERTEX
  8
0
 10
2216.474020
 20
2698.172753
 42
0.108037
  0
VERTEX
  8
0
 10
2205.498359
 20
2703.785435
 42
0.123517
  0
SEQEND
  0
POLYLINE
  8
0
 66
1
 70
1
  0
VERTEX
  8
0
 10
1146.453204
 20
2698.673922
 42
0.113483
  0
VERTEX
  8
0
 10
1134.939171
 20
2690.901655
 42
0.125622
  0
VERTEX
  8
0
 10
1128.498949
 20
2679.143495
 42
0.126923
  0
VERTEX
  8
0
 10
1128.516751
 20
2665.833657
 42
0.117207
  0
VERTEX
  8
0
 10
1134.924053
 20
2653.739280
 42
0.057462
  0
VERTEX
  8
0
 10
1138.280822
 20
2650.702042
 42
0.034054
  0
VERTEX
  8
0
 10
1142.881482
 20
2647.864945
 42
0.033710
  0
VERTEX
  8
0
 10
1147.920518
 20
2645.632086
 42
0.049082
  0
VERTEX
  8
0
 10
1152.623839
 20
2644.422955
 42
0.093536
  0
VERTEX
  8
0
 10
1159.685245
 20
2644.655952
 42
0.063496
  0
VERTEX
  8
0
 10
1167.272442
 20
2647.394039
 42
0.061613
  0
VERTEX
  8
0
 10
1174.170873
 20
2652.075418
 42
0.074833
  0
VERTEX
  8
0
 10
1179.211705
 20
2658.034531
 42
0.135756
  0
VERTEX
  8
0
 10
1183.244170
 20
2671.908281
 42
0.133793
  0
VERTEX
  8
0
 10
1179.608866
 20
2685.968637
 42
0.133345
  0
VERTEX
  8
0
 10
1169.328846
 20
2696.274508
 42
0.134473
  0
VERTEX
  8
0
 10
1155.282119
 20
2699.923922
 42
0.017056
  0
VERTEX
  8
0
 10
1152.844935
 20
2699.808641
 42
0.014819
  0
VERTEX
  8
0
 10
1150.303501
 20
2699.525352
 42
0.015063
  0
VERTEX
  8
0
 10
1148.017899
 20
2699.131203
 42
0.041743
  0
SEQEND
  0
POLYLINE
  8
0
 66
1
 70
1
  0
VERTEX
  8
0
 10
1396.490909
 20
2641.217315
 42
0.039094
  0
VERTEX
  8
0
 10
1391.964814
 20
2638.575171
 42
0.042922
  0
VERTEX
  8
0
 10
1388.055026
 20
2635.332937
 42
0.042018
  0
VERTEX
  8
0
 10
1384.688810
 20
2631.406189
 42
0.034756
  0
VERTEX
  8
0
 10
1381.783277
 20
2626.722196
 42
0.034882
  0
VERTEX
  8
0
 10
1380.680133
 20
2624.225176
 42
0.040954
  0
VERTEX
  8
0
 10
1380.004104
 20
2621.728214
 42
0.032309
  0
VERTEX
  8
0
 10
1379.646655
 20
2618.711610
 42
0.012490
  0
VERTEX
  8
0
 10
1379.527137
 20
2614.500000
 42
0.036877
  0
VERTEX
  8
0
 10
1379.987498
 20
2607.964937
 42
0.060641
  0
VERTEX
  8
0
 10
1381.438134
 20
2602.623428
 42
0.061115
  0
VERTEX
  8
0
 10
1384.117893
 20
2597.814543
 42
0.038108
  0
VERTEX
  8
0
 10
1388.312520
 20
2592.901205
 42
0.122310
  0
VERTEX
  8
0
 10
1400.533186
 20
2585.499892
 42
0.125420
  0
VERTEX
  8
0
 10
1414.676135
 20
2584.769362
 42
0.122764
  0
VERTEX
  8
0
 10
1427.671305
 20
2590.922745
 42
0.114224
  0
VERTEX
  8
0
 10
1436.674628
 20
2602.600470
 42
0.080894
  0
VERTEX
  8
0
 10
1438.889781
 20
2610.670341
 42
0.072865
  0
VERTEX
  8
0
 10
1438.551593
 20
2619.334979
 42
0.071579
  0
VERTEX
  8
0
 10
1435.718551
 20
2627.676762
 42
0.073382
  0
VERTEX
  8
0
 10
1430.665486
 20
2634.802686
 42
0.041075
  0
VERTEX
  8
0
 10
1426.292308
 20
2638.680055
 42
0.056998
  0
VERTEX
  8
0
 10
1421.775569
 20
2641.322840
 42
0.055203
  0
VERTEX
  8
0
 10
1416.666390
 20
2642.932627
 42
0.035579
  0
VERTEX
  8
0
 10
1410.500000
 20
2643.700008
 42
0.011714
  0
VERTEX
  8
0
 10
1405.751479
 20
2643.838953
 42
0.045337
  0
VERTEX
  8
0
 10
1402.818513
 20
2643.589677
 42
0.051075
  0
VERTEX
  8
0
 10
1400.154552
 20
2642.830962
 42
0.017682
  0
SEQEND
  0
POLYLINE
  8
0
 66
1
 70
1
  0
VERTEX
  8
0
 10
2097.332455
 20
2640.210224
 42
0.121196
  0
VERTEX
  8
0
 10
2084.520362
 20
2631.733532
 42
0.128921
  0
VERTEX
  8
0
 10
2077.463620
 20
2618.460538
 42
0.130743
  0
VERTEX
  8
0
 10
2077.877180
 20
2603.580365
 42
0.126407
  0
VERTEX
  8
0
 10
2085.612801
 20
2590.654261
 42
0.026907
  0
VERTEX
  8
0
 10
2089.073624
 20
2587.580495
 42
0.042931
  0
VERTEX
  8
0
 10
2092.366467
 20
2585.391817
 42
0.042270
  0
VERTEX
  8
0
 10
2096.022011
 20
2583.775440
 42
0.025137
  0
VERTEX
  8
0
 10
2100.598556
 20
2582.451644
 42
0.104236
  0
VERTEX
  8
0
 10
2111.384828
 20
2582.197180
 42
0.091622
  0
VERTEX
  8
0
 10
2121.913691
 20
2586.243057
 42
0.089687
  0
VERTEX
  8
0
 10
2130.480088
 20
2593.886151
 42
0.094400
  0
VERTEX
  8
0
 10
2135.640692
 20
2603.917014
 42
0.145997
  0
VERTEX
  8
0
 10
2135.593516
 20
2619.492002
 42
0.130592
  0
VERTEX
  8
0
 10
2127.085970
 20
2633.284821
 42
0.130736
  0
VERTEX
  8
0
 10
2112.862752
 20
2641.025414
 42
0.146454
  0
SEQEND
  0
POLYLINE
  8
0
 66
1
 70
1
  0
VERTEX
  8
0
 10
2843.723684
 20
2630.533500
 42
0.080717
  0
VERTEX
  8
0
 10
2834.893105
 20
2625.394895
 42
0.077950
  0
VERTEX
  8
0
 10
2828.020633
 20
2617.670709
 42
0.080047
  0
VERTEX
  8
0
 10
2823.977559
 20
2608.413399
 42
0.092741
  0
VERTEX
  8
0
 10
2823.333809
 20
2598.829313
 42
0.071975
  0
VERTEX
  8
0
 10
2825.429069
 20
2591.003090
 42
0.064645
  0
VERTEX
  8
0
 10
2829.708436
 20
2583.772527
 42
0.064712
  0
VERTEX
  8
0
 10
2835.687241
 20
2577.881061
 42
0.072429
  0
VERTEX
  8
0
 10
2842.761342
 20
2573.977881
 42
0.112093
  0
VERTEX
  8
0
 10
2855.700301
 20
2572.202878
 42
0.109319
  0
VERTEX
  8
0
 10
2868.267801
 20
2576.155200
 42
0.110030
  0
VERTEX
  8
0
 10
2877.934689
 20
2585.011152
 42
0.114840
  0
VERTEX
  8
0
 10
2882.741189
 20
2597.000000
 42
0.076529
  0
VERTEX
  8
0
 10
2882.739778
 20
2606.725889
 42
0.083351
  0
VERTEX
  8
0
 10
2879.775009
 20
2615.695693
 42
0.082032
  0
VERTEX
  8
0
 10
2873.991163
 20
2623.315996
 42
0.071177
  0
VERTEX
  8
0
 10
2865.795060
 20
2629.114774
 42
0.067098
  0
VERTEX
  8
0
 10
2861.013771
 20
2630.804129
 42
0.035377
  0
VERTEX
  8
0
 10
2854.763016
 20
2631.652603
 42
0.035416
  0
VERTEX
  8
0
 10
2848.505638
 20
2631.611229
 42
0.072253
  0
SEQEND
  0
POLYLINE
  8
0
 66
1
 70
1
  0
VERTEX
  8
0
 10
1391.500000
 20
1886.601175
 42
0.089614
  0
VERTEX
  8
0
 10
1380.800602
 20
1880.962029
 42
0.096954
  0
VERTEX
  8
0
 10
1373.094343
 20
1872.062962
 42
0.099935
  0
VERTEX
  8
0
 10
1369.464158
 20
1861.151535
 42
0.101567
  0
VERTEX
  8
0
 10
1370.383384
 20
1849.753149
 42
0.106968
  0
VERTEX
  8
0
 10
1376.357347
 20
1838.714102
 42
0.101839
  0
VERTEX
  8
0
 10
1386.453663
 20
1830.900021
 42
0.103243
  0
VERTEX
  8
0
 10
1398.692490
 20
1827.775979
 42
0.113083
  0
VERTEX
  8
0
 10
1410.731098
 20
1829.979667
 42
0.058095
  0
VERTEX
  8
0
 10
1415.401664
 20
1832.668244
 42
0.037056
  0
VERTEX
  8
0
 10
1420.149905
 20
1836.769806
 42
0.036930
  0
VERTEX
  8
0
 10
1424.266249
 20
1841.554652
 42
0.055428
  0
VERTEX
  8
0
 10
1427.028586
 20
1846.314195
 42
0.152233
  0
VERTEX
  8
0
 10
1428.842010
 20
1862.297049
 42
0.134184
  0
VERTEX
  8
0
 10
1421.432454
 20
1877.406050
 42
0.135233
  0
VERTEX
  8
0
 10
1407.424450
 20
1886.568509
 42
0.155412
  0
SEQEND
  0
POLYLINE
  8
0
 66
1
 70
1
  0
VERTEX
  8
0
 10
2087.993526
 20
1884.065659
 42
0.032860
  0
VERTEX
  8
0
 10
2084.688561
 20
1882.817930
 42
0.033085
  0
VERTEX
  8
0
 10
2081.583420
 20
1881.150378
 42
0.031564
  0
VERTEX
  8
0
 10
2078.598365
 20
1879.009920
 42
0.024984
  0
VERTEX
  8
0
 10
2075.652016
 20
1876.345739
 42
0.037272
  0
VERTEX
  8
0
 10
2071.923508
 20
1872.018238
 42
0.057058
  0
VERTEX
  8
0
 10
2069.454211
 20
1867.732190
 42
0.055133
  0
VERTEX
  8
0
 10
2067.964156
 20
1862.890076
 42
0.032187
  0
VERTEX
  8
0
 10
2067.212039
 20
1856.856996
 42
0.012717
  0
VERTEX
  8
0
 10
2067.062228
 20
1852.483391
 42
0.041146
  0
VERTEX
  8
0
 10
2067.275290
 20
1849.587375
 42
0.047301
  0
VERTEX
  8
0
 10
2067.940386
 20
1846.984998
 42
0.021150
  0
VERTEX
  8
0
 10
2069.275670
 20
1843.709035
 42
0.063229
  0
VERTEX
  8
0
 10
2074.102610
 20
1835.934553
 42
0.077381
  0
VERTEX
  8
0
 10
2080.444679
 20
1830.208132
 42
0.078380
  0
VERTEX
  8
0
 10
2088.157207
 20
1826.731176
 42
0.067024
  0
VERTEX
  8
0
 10
2097.000000
 20
1825.545882
 42
0.043503
  0
VERTEX
  8
0
 10
2103.174236
 20
1826.087840
 42
0.058018
  0
VERTEX
  8
0
 10
2108.563227
 20
1827.698398
 42
0.057605
  0
VERTEX
  8
0
 10
2113.466873
 20
1830.515170
 42
0.042076
  0
VERTEX
  8
0
 10
2118.191163
 20
1834.663602
 42
0.113407
  0
VERTEX
  8
0
 10
2125.435967
 20
1846.742707
 42
0.123034
  0
VERTEX
  8
0
 10
2126.387616
 20
1860.399280
 42
0.122445
  0
VERTEX
  8
0
 10
2120.799766
 20
1872.947698
 42
0.111652
  0
VERTEX
  8
0
 10
2109.820854
 20
1881.931657
 42
0.017727
  0
VERTEX
  8
0
 10
2106.338621
 20
1883.520101
 42
0.040620
  0
VERTEX
  8
0
 10
2103.595364
 20
1884.402823
 42
0.041519
  0
VERTEX
  8
0
 10
2100.782419
 20
1884.819700
 42
0.019297
  0
VERTEX
  8
0
 10
2097.090278
 20
1884.914047
 42
0.009897
  0
VERTEX
  8
0
 10
2094.383372
 20
1884.825132
 42
0.010091
  0
VERTEX
  8
0
 10
2091.699617
 20
1884.629378
 42
0.009907
  0
VERTEX
  8
0
 10
2089.376876
 20
1884.366238
 42
0.040690
  0
SEQEND
  0
POLYLINE
  8
0
 66
1
 70
1
  0
VERTEX
  8
0
 10
2837.000000
 20
1874.605966
 42
0.081702
  0
VERTEX
  8
0
 10
2827.511415
 20
1870.847469
 42
0.088672
  0
VERTEX
  8
0
 10
2820.031082
 20
1864.325395
 42
0.088523
  0
VERTEX
  8
0
 10
2815.264520
 20
1855.605650
 42
0.081096
  0
VERTEX
  8
0
 10
2813.614618
 20
1845.500000
 42
0.090356
  0
VERTEX
  8
0
 10
2815.564888
 20
1834.795911
 42
0.090955
  0
VERTEX
  8
0
 10
2821.163439
 20
1825.495255
 42
0.090440
  0
VERTEX
  8
0
 10
2829.730312
 20
1818.747876
 42
0.088100
  0
VERTEX
  8
0
 10
2840.205746
 20
1815.380688
 42
0.133379
  0
VERTEX
  8
0
 10
2853.317393
 20
1817.093986
 42
0.106763
  0
VERTEX
  8
0
 10
2865.052801
 20
1825.258522
 42
0.107407
  0
VERTEX
  8
0
 10
2872.322600
 20
1837.490568
 42
0.136515
  0
VERTEX
  8
0
 10
2872.987954
 20
1850.553751
 42
0.091076
  0
VERTEX
  8
0
 10
2868.162540
 20
1861.900047
 42
0.099798
  0
VERTEX
  8
0
 10
2859.736779
 20
1870.371415
 42
0.102015
  0
VERTEX
  8
0
 10
2848.850791
 20
1874.793219
 42
0.099479
  0
SEQEND
  0
POLYLINE
  8
0
 66
1
 70
1
  0
VERTEX
  8
0
 10
1215.500000
 20
1790.120774
 42
0.058600
  0
VERTEX
  8
0
 10
1208.253391
 20
1785.534316
 42
0.075050
  0
VERTEX
  8
0
 10
1202.938068
 20
1779.708893
 42
0.075322
  0
VERTEX
  8
0
 10
1199.592144
 20
1772.591837
 42
0.059554
  0
VERTEX
  8
0
 10
1198.150159
 20
1764.198457
 42
0.014531
  0
VERTEX
  8
0
 10
1198.054421
 20
1759.869564
 42
0.048321
  0
VERTEX
  8
0
 10
1198.348164
 20
1757.042029
 42
0.049065
  0
VERTEX
  8
0
 10
1199.176635
 20
1754.346005
 42
0.015321
  0
VERTEX
  8
0
 10
1200.930096
 20
1750.490431
 42
0.067673
  0
VERTEX
  8
0
 10
1206.102879
 20
1742.808154
 42
0.077094
  0
VERTEX
  8
0
 10
1212.941373
 20
1737.173701
 42
0.078342
  0
VERTEX
  8
0
 10
1221.067871
 20
1733.938071
 42
0.073022
  0
VERTEX
  8
0
 10
1230.000000
 20
1733.251011
 42
0.041635
  0
VERTEX
  8
0
 10
1235.603566
 20
1734.110742
 42
0.052762
  0
VERTEX
  8
0
 10
1240.537185
 20
1735.860874
 42
0.051465
  0
VERTEX
  8
0
 10
1245.088874
 20
1738.646241
 42
0.036932
  0
VERTEX
  8
0
 10
1249.552177
 20
1742.607079
 42
0.096257
  0
VERTEX
  8
0
 10
1255.721298
 20
1752.039195
 42
0.097909
  0
VERTEX
  8
0
 10
1257.860508
 20
1763.037720
 42
0.097602
  0
VERTEX
  8
0
 10
1255.654558
 20
1774.051020
 42
0.095002
  0
VERTEX
  8
0
 10
1249.425535
 20
1783.523226
 42
0.069967
  0
VERTEX
  8
0
 10
1241.833459
 20
1789.414835
 42
0.082227
  0
VERTEX
  8
0
 10
1233.307972
 20
1792.586510
 42
0.083831
  0
VERTEX
  8
0
 10
1224.351121
 20
1792.808722
 42
0.076332
  0
SEQEND
  0
POLYLINE
  8
0
 66
1
 70
1
  0
VERTEX
  8
0
 10
2027.453391
 20
1779.953880
 42
0.034822
  0
VERTEX
  8
0
 10
2025.206805
 20
1778.904599
 42
0.019192
  0
VERTEX
  8
0
 10
2022.612817
 20
1777.332210
 42
0.019054
  0
VERTEX
  8
0
 10
2020.092683
 20
1775.527643
 42
0.028883
  0
VERTEX
  8
0
 10
2018.061567
 20
1773.755985
 42
0.121930
  0
VERTEX
  8
0
 10
2010.062701
 20
1760.800103
 42
0.130479
  0
VERTEX
  8
0
 10
2009.305445
 20
1745.952013
 42
0.130363
  0
VERTEX
  8
0
 10
2016.013653
 20
1732.673749
 42
0.121606
  0
VERTEX
  8
0
 10
2028.581189
 20
1724.044302
 42
0.152887
  0
VERTEX
  8
0
 10
2045.508550
 20
1723.090997
 42
0.144318
  0
VERTEX
  8
0
 10
2060.409649
 20
1731.898534
 42
0.144946
  0
VERTEX
  8
0
 10
2068.109420
 20
1747.345193
 42
0.154481
  0
VERTEX
  8
0
 10
2065.889297
 20
1764.066579
 42
0.088913
  0
VERTEX
  8
0
 10
2059.157719
 20
1773.578014
 42
0.096695
  0
VERTEX
  8
0
 10
2049.717023
 20
1779.827520
 42
0.097678
  0
VERTEX
  8
0
 10
2038.700747
 20
1782.028749
 42
0.092717
  0
SEQEND
  0
POLYLINE
  8
0
 66
1
 70
1
  0
VERTEX
  8
0
 10
1418.460392
 20
1371.017018
 42
0.032808
  0
VERTEX
  8
0
 10
1416.216824
 20
1369.951578
 42
0.018225
  0
VERTEX
  8
0
 10
1413.626436
 20
1368.379764
 42
0.018113
  0
VERTEX
  8
0
 10
1411.109439
 20
1366.590208
 42
0.027800
  0
VERTEX
  8
0
 10
1409.081269
 20
1364.847397
 42
0.143334
  0
VERTEX
  8
0
 10
1400.517945
 20
1349.912474
 42
0.147535
  0
VERTEX
  8
0
 10
1401.489831
 20
1332.901739
 42
0.147075
  0
VERTEX
  8
0
 10
1411.714799
 20
1319.228117
 42
0.142255
  0
VERTEX
  8
0
 10
1427.921925
 20
1313.237699
 42
0.016421
  0
VERTEX
  8
0
 10
1431.812068
 20
1313.087511
 42
0.044334
  0
VERTEX
  8
0
 10
1434.564802
 20
1313.316133
 42
0.045116
  0
VERTEX
  8
0
 10
1437.206820
 20
1314.023620
 42
0.017506
  0
VERTEX
  8
0
 10
1440.716964
 20
1315.453468
 42
0.129659
  0
VERTEX
  8
0
 10
1454.027462
 20
1326.210839
 42
0.148007
  0
VERTEX
  8
0
 10
1459.461593
 20
1341.606054
 42
0.146623
  0
VERTEX
  8
0
 10
1455.465184
 20
1357.540823
 42
0.126621
  0
VERTEX
  8
0
 10
1443.185446
 20
1369.737209
 42
0.074298
  0
VERTEX
  8
0
 10
1437.910932
 20
1371.854735
 42
0.045464
  0
VERTEX
  8
0
 10
1431.261790
 20
1372.809247
 42
0.044805
  0
VERTEX
  8
0
 10
1424.398012
 20
1372.549433
 42
0.062676
  0
SEQEND
  0
POLYLINE
  8
0
 66
1
 70
1
  0
VERTEX
  8
0
 10
849.343746
 20
1346.987418
 42
0.055722
  0
VERTEX
  8
0
 10
843.084445
 20
1344.959474
 42
0.054807
  0
VERTEX
  8
0
 10
837.389688
 20
1341.590987
 42
0.053034
  0
VERTEX
  8
0
 10
832.405110
 20
1336.950863
 42
0.046311
  0
VERTEX
  8
0
 10
828.248322
 20
1331.160756
 42
0.032065
  0
VERTEX
  8
0
 10
826.916065
 20
1328.511722
 42
0.041533
  0
VERTEX
  8
0
 10
826.063851
 20
1325.930197
 42
0.033261
  0
VERTEX
  8
0
 10
825.533463
 20
1322.828123
 42
0.012602
  0
VERTEX
  8
0
 10
825.192404
 20
1318.444194
 42
0.011090
  0
VERTEX
  8
0
 10
825.048691
 20
1313.696156
 42
0.039739
  0
VERTEX
  8
0
 10
825.264904
 20
1310.671323
 42
0.047897
  0
VERTEX
  8
0
 10
825.932834
 20
1308.016961
 42
0.021777
  0
VERTEX
  8
0
 10
827.281316
 20
1304.696702
 42
0.048067
  0
VERTEX
  8
0
 10
830.071014
 20
1299.884769
 42
0.038142
  0
VERTEX
  8
0
 10
833.933238
 20
1295.277913
 42
0.038491
  0
VERTEX
  8
0
 10
838.400816
 20
1291.360288
 42
0.052366
  0
VERTEX
  8
0
 10
843.000000
 20
1288.613846
 42
0.069612
  0
VERTEX
  8
0
 10
848.809253
 20
1286.850563
 42
0.044531
  0
VERTEX
  8
0
 10
855.858284
 20
1286.379769
 42
0.044624
  0
VERTEX
  8
0
 10
862.854331
 20
1287.163098
 42
0.071565
  0
VERTEX
  8
0
 10
868.500000
 20
1289.182935
 42
0.083072
  0
VERTEX
  8
0
 10
877.740648
 20
1296.240253
 42
0.092531
  0
VERTEX
  8
0
 10
883.771465
 20
1305.685141
 42
0.094692
  0
VERTEX
  8
0
 10
885.903256
 20
1316.483666
 42
0.091660
  0
VERTEX
  8
0
 10
883.946455
 20
1327.440889
 42
0.090787
  0
VERTEX
  8
0
 10
878.470625
 20
1336.563330
 42
0.083924
  0
VERTEX
  8
0
 10
869.983356
 20
1343.449898
 42
0.084667
  0
VERTEX
  8
0
 10
859.775954
 20
1347.121234
 42
0.094864
  0
SEQEND
  0
POLYLINE
  8
0
 66
1
 70
1
  0
VERTEX
  8
0
 10
1333.695849
 20
1224.081834
 42
0.065339
  0
VERTEX
  8
0
 10
1325.909606
 20
1219.701638
 42
0.074305
  0
VERTEX
  8
0
 10
1319.897555
 20
1213.618669
 42
0.074756
  0
VERTEX
  8
0
 10
1315.952529
 20
1206.077144
 42
0.067261
  0
VERTEX
  8
0
 10
1314.213729
 20
1197.428668
 42
0.014203
  0
VERTEX
  8
0
 10
1314.067650
 20
1193.336674
 42
0.041837
  0
VERTEX
  8
0
 10
1314.282269
 20
1190.531035
 42
0.046456
  0
VERTEX
  8
0
 10
1314.945199
 20
1187.964972
 42
0.020921
  0
VERTEX
  8
0
 10
1316.260813
 20
1184.741486
 42
0.056677
  0
VERTEX
  8
0
 10
1320.943711
 20
1176.974522
 42
0.075729
  0
VERTEX
  8
0
 10
1326.880355
 20
1171.288643
 42
0.077451
  0
VERTEX
  8
0
 10
1334.129171
 20
1167.714703
 42
0.062590
  0
VERTEX
  8
0
 10
1342.679192
 20
1166.172534
 42
0.014651
  0
VERTEX
  8
0
 10
1346.688829
 20
1166.075744
 42
0.039666
  0
VERTEX
  8
0
 10
1349.522071
 20
1166.315597
 42
0.044228
  0
VERTEX
  8
0
 10
1352.102570
 20
1166.980406
 42
0.022201
  0
VERTEX
  8
0
 10
1355.224822
 20
1168.245389
 42
0.035567
  0
VERTEX
  8
0
 10
1360.382707
 20
1171.066092
 42
0.047381
  0
VERTEX
  8
0
 10
1364.579462
 20
1174.365347
 42
0.048147
  0
VERTEX
  8
0
 10
1368.030053
 20
1178.350352
 42
0.038523
  0
VERTEX
  8
0
 10
1370.953169
 20
1183.222196
 42
0.103081
  0
VERTEX
  8
0
 10
1373.885298
 20
1194.334849
 42
0.100650
  0
VERTEX
  8
0
 10
1372.175535
 20
1205.796068
 42
0.098523
  0
VERTEX
  8
0
 10
1366.066572
 20
1215.869946
 42
0.094409
  0
VERTEX
  8
0
 10
1356.484182
 20
1223.019357
 42
0.056074
  0
VERTEX
  8
0
 10
1351.105206
 20
1224.926396
 42
0.045554
  0
VERTEX
  8
0
 10
1345.042459
 20
1225.766150
 42
0.046029
  0
VERTEX
  8
0
 10
1339.002922
 20
1225.491746
 42
0.061212
  0
SEQEND
  0
POLYLINE
  8
0
 66
1
 70
1
  0
VERTEX
  8
0
 10
2561.456996
 20
1215.139568
 42
0.036168
  0
VERTEX
  8
0
 10
2557.094691
 20
1212.675422
 42
0.047850
  0
VERTEX
  8
0
 10
2553.554917
 20
1209.800502
 42
0.046134
  0
VERTEX
  8
0
 10
2550.532620
 20
1206.218458
 42
0.030459
  0
VERTEX
  8
0
 10
2547.725380
 20
1201.616470
 42
0.078435
  0
VERTEX
  8
0
 10
2545.969927
 20
1196.496363
 42
0.044418
  0
VERTEX
  8
0
 10
2545.412186
 20
1189.947998
 42
0.044354
  0
VERTEX
  8
0
 10
2546.020882
 20
1183.383305
 42
0.076430
  0
VERTEX
  8
0
 10
2547.814553
 20
1178.208735
 42
0.069924
  0
VERTEX
  8
0
 10
2552.813342
 20
1171.292741
 42
0.069788
  0
VERTEX
  8
0
 10
2559.527743
 20
1166.017134
 42
0.071821
  0
VERTEX
  8
0
 10
2567.246250
 20
1162.905363
 42
0.081995
  0
VERTEX
  8
0
 10
2575.178536
 20
1162.299705
 42
0.097161
  0
VERTEX
  8
0
 10
2585.409159
 20
1165.254126
 42
0.093400
  0
VERTEX
  8
0
 10
2593.929141
 20
1171.881657
 42
0.094667
  0
VERTEX
  8
0
 10
2599.369676
 20
1181.068777
 42
0.103155
  0
VERTEX
  8
0
 10
2600.819270
 20
1191.332818
 42
0.118125
  0
VERTEX
  8
0
 10
2596.783637
 20
1204.358554
 42
0.123432
  0
VERTEX
  8
0
 10
2587.328133
 20
1213.893325
 42
0.124937
  0
VERTEX
  8
0
 10
2574.591451
 20
1217.768625
 42
0.122777
  0
SEQEND
  0
POLYLINE
  8
0
 66
1
 70
1
  0
VERTEX
  8
0
 10
3042.372052
 20
1214.788256
 42
0.063559
  0
VERTEX
  8
0
 10
3037.995727
 20
1212.735608
 42
0.040479
  0
VERTEX
  8
0
 10
3033.499999
 20
1209.343184
 42
0.039828
  0
VERTEX
  8
0
 10
3029.509468
 20
1205.176745
 42
0.052920
  0
VERTEX
  8
0
 10
3026.642997
 20
1200.787050
 42
0.106976
  0
VERTEX
  8
0
 10
3023.648605
 20
1189.512634
 42
0.109610
  0
VERTEX
  8
0
 10
3025.627152
 20
1178.115779
 42
0.107232
  0
VERTEX
  8
0
 10
3032.303686
 20
1168.437650
 42
0.098535
  0
VERTEX
  8
0
 10
3042.581189
 20
1162.039535
 42
0.044279
  0
VERTEX
  8
0
 10
3047.574412
 20
1160.647468
 42
0.055647
  0
VERTEX
  8
0
 10
3052.361612
 20
1160.301198
 42
0.054476
  0
VERTEX
  8
0
 10
3057.187811
 20
1161.019839
 42
0.039974
  0
VERTEX
  8
0
 10
3062.299816
 20
1162.808424
 42
0.143725
  0
VERTEX
  8
0
 10
3074.499530
 20
1173.125200
 42
0.148374
  0
VERTEX
  8
0
 10
3078.997213
 20
1188.267153
 42
0.146874
  0
VERTEX
  8
0
 10
3074.335177
 20
1203.471278
 42
0.140239
  0
VERTEX
  8
0
 10
3062.000000
 20
1213.923324
 42
0.061009
  0
VERTEX
  8
0
 10
3057.764842
 20
1215.244641
 42
0.034141
  0
VERTEX
  8
0
 10
3052.394892
 20
1215.850202
 42
0.033978
  0
VERTEX
  8
0
 10
3046.925781
 20
1215.719510
 42
0.055006
  0
SEQEND
  0
POLYLINE
  8
0
 66
1
 70
1
  0
VERTEX
  8
0
 10
2035.920447
 20
968.924179
 42
0.088173
  0
VERTEX
  8
0
 10
2026.426393
 20
965.676225
 42
0.088200
  0
VERTEX
  8
0
 10
2018.634056
 20
959.356024
 42
0.086191
  0
VERTEX
  8
0
 10
2013.366955
 20
950.597677
 42
0.079409
  0
VERTEX
  8
0
 10
2011.165858
 20
940.320808
 42
0.014514
  0
VERTEX
  8
0
 10
2011.071289
 20
936.294252
 42
0.040564
  0
VERTEX
  8
0
 10
2011.315457
 20
933.482695
 42
0.045419
  0
VERTEX
  8
0
 10
2011.990398
 20
930.929989
 42
0.022250
  0
VERTEX
  8
0
 10
2013.282116
 20
927.820808
 42
0.068037
  0
VERTEX
  8
0
 10
2018.195837
 20
920.223691
 42
0.067548
  0
VERTEX
  8
0
 10
2024.979002
 20
914.202875
 42
0.069311
  0
VERTEX
  8
0
 10
2032.947371
 20
910.327768
 42
0.078721
  0
VERTEX
  8
0
 10
2041.328507
 20
909.000000
 42
0.088808
  0
VERTEX
  8
0
 10
2048.722136
 20
910.323668
 42
0.057919
  0
VERTEX
  8
0
 10
2056.471297
 20
914.260095
 42
0.056645
  0
VERTEX
  8
0
 10
2063.306670
 20
920.004502
 42
0.073477
  0
VERTEX
  8
0
 10
2068.003650
 20
926.695651
 42
0.145165
  0
VERTEX
  8
0
 10
2070.765209
 20
942.130830
 42
0.135428
  0
VERTEX
  8
0
 10
2064.795933
 20
957.054526
 42
0.132810
  0
VERTEX
  8
0
 10
2051.896293
 20
967.004296
 42
0.137523
  0
SEQEND
  0
POLYLINE
  8
0
 66
1
 70
1
  0
VERTEX
  8
0
 10
1213.500000
 20
964.155373
 42
0.053411
  0
VERTEX
  8
0
 10
1207.076256
 20
960.223797
 42
0.061869
  0
VERTEX
  8
0
 10
1201.978716
 20
955.185771
 42
0.063079
  0
VERTEX
  8
0
 10
1198.342676
 20
949.143239
 42
0.059047
  0
VERTEX
  8
0
 10
1196.227136
 20
942.249386
 42
0.081160
  0
VERTEX
  8
0
 10
1196.055516
 20
932.623687
 42
0.083544
  0
VERTEX
  8
0
 10
1198.971152
 20
923.547854
 42
0.081502
  0
VERTEX
  8
0
 10
1204.779624
 20
915.749485
 42
0.072356
  0
VERTEX
  8
0
 10
1213.000000
 20
909.837282
 42
0.078191
  0
VERTEX
  8
0
 10
1218.545595
 20
907.981179
 42
0.040012
  0
VERTEX
  8
0
 10
1225.873722
 20
907.342521
 42
0.040062
  0
VERTEX
  8
0
 10
1233.147969
 20
907.875450
 42
0.084519
  0
VERTEX
  8
0
 10
1238.500000
 20
909.660054
 42
0.062340
  0
VERTEX
  8
0
 10
1244.743963
 20
914.070767
 42
0.054389
  0
VERTEX
  8
0
 10
1250.037859
 20
920.075094
 42
0.055173
  0
VERTEX
  8
0
 10
1253.843950
 20
926.981291
 42
0.069004
  0
VERTEX
  8
0
 10
1255.692865
 20
934.054535
 42
0.098557
  0
VERTEX
  8
0
 10
1254.932222
 20
943.712838
 42
0.080556
  0
VERTEX
  8
0
 10
1250.549287
 20
953.124215
 42
0.078178
  0
VERTEX
  8
0
 10
1243.260501
 20
960.906841
 42
0.083955
  0
VERTEX
  8
0
 10
1234.100777
 20
965.846756
 42
0.056294
  0
VERTEX
  8
0
 10
1229.267311
 20
966.900302
 42
0.046048
  0
VERTEX
  8
0
 10
1223.974377
 20
966.953827
 42
0.044677
  0
VERTEX
  8
0
 10
1218.593967
 20
966.023515
 42
0.045530
  0
SEQEND
  0
POLYLINE
  8
0
 66
1
 70
1
  0
VERTEX
  8
0
 10
848.343746
 20
956.987418
 42
0.039182
  0
VERTEX
  8
0
 10
843.851733
 20
955.694202
 42
0.041499
  0
VERTEX
  8
0
 10
839.706251
 20
953.734551
 42
0.040643
  0
VERTEX
  8
0
 10
835.867620
 20
951.075716
 42
0.034780
  0
VERTEX
  8
0
 10
832.289870
 20
947.698645
 42
0.026983
  0
VERTEX
  8
0
 10
828.412429
 20
943.007888
 42
0.060305
  0
VERTEX
  8
0
 10
826.131949
 20
938.990942
 42
0.059601
  0
VERTEX
  8
0
 10
824.860633
 20
934.516227
 42
0.025829
  0
VERTEX
  8
0
 10
824.204101
 20
928.352086
 42
0.011287
  0
VERTEX
  8
0
 10
824.054341
 20
923.657194
 42
0.040090
  0
VERTEX
  8
0
 10
824.267257
 20
920.655891
 42
0.048000
  0
VERTEX
  8
0
 10
824.933355
 20
918.012942
 42
0.021633
  0
VERTEX
  8
0
 10
826.281316
 20
914.696702
 42
0.048151
  0
VERTEX
  8
0
 10
829.086145
 20
909.860547
 42
0.038591
  0
VERTEX
  8
0
 10
832.960901
 20
905.250305
 42
0.039117
  0
VERTEX
  8
0
 10
837.423343
 20
901.363790
 42
0.054788
  0
VERTEX
  8
0
 10
841.983889
 20
898.698637
 42
0.034122
  0
VERTEX
  8
0
 10
844.170615
 20
897.897490
 42
0.015948
  0
VERTEX
  8
0
 10
847.093981
 20
897.147694
 42
0.015717
  0
VERTEX
  8
0
 10
850.222399
 20
896.553347
 42
0.021225
  0
VERTEX
  8
0
 10
853.083422
 20
896.226144
 42
0.133251
  0
VERTEX
  8
0
 10
867.338762
 20
899.019691
 42
0.121928
  0
VERTEX
  8
0
 10
878.791629
 20
908.688083
 42
0.120313
  0
VERTEX
  8
0
 10
884.510892
 20
922.699125
 42
0.127588
  0
VERTEX
  8
0
 10
882.946455
 20
937.440889
 42
0.090787
  0
VERTEX
  8
0
 10
877.470625
 20
946.563330
 42
0.083924
  0
VERTEX
  8
0
 10
868.983356
 20
953.449898
 42
0.084667
  0
VERTEX
  8
0
 10
858.775954
 20
957.121234
 42
0.094864
  0
SEQEND
  0
POLYLINE
  8
0
 66
1
 70
1
  0
VERTEX
  8
0
 10
1600.500000
 20
714.217082
 42
0.041399
  0
VERTEX
  8
0
 10
1596.082067
 20
711.607019
 42
0.034257
  0
VERTEX
  8
0
 10
1591.847238
 20
708.148323
 42
0.034933
  0
VERTEX
  8
0
 10
1588.224596
 20
704.241034
 42
0.050174
  0
VERTEX
  8
0
 10
1585.649738
 20
700.289562
 42
0.035478
  0
VERTEX
  8
0
 10
1585.014435
 20
698.813027
 42
0.012265
  0
VERTEX
  8
0
 10
1584.303895
 20
696.601474
 42
0.012115
  0
VERTEX
  8
0
 10
1583.637558
 20
694.117776
 42
0.013773
  0
VERTEX
  8
0
 10
1583.123137
 20
691.708286
 42
0.081722
  0
VERTEX
  8
0
 10
1582.931207
 20
681.974338
 42
0.082931
  0
VERTEX
  8
0
 10
1585.875756
 20
672.745480
 42
0.081097
  0
VERTEX
  8
0
 10
1591.736303
 20
664.810911
 42
0.073568
  0
VERTEX
  8
0
 10
1600.000000
 20
658.837282
 42
0.032492
  0
VERTEX
  8
0
 10
1602.742946
 20
657.631774
 42
0.044761
  0
VERTEX
  8
0
 10
1605.342980
 20
656.941055
 42
0.033150
  0
VERTEX
  8
0
 10
1608.560869
 20
656.605435
 42
0.009889
  0
VERTEX
  8
0
 10
1613.500000
 20
656.517163
 42
0.027999
  0
VERTEX
  8
0
 10
1620.398140
 20
656.916950
 42
0.065283
  0
VERTEX
  8
0
 10
1625.409127
 20
658.165846
 42
0.068793
  0
VERTEX
  8
0
 10
1629.769373
 20
660.616278
 42
0.034019
  0
VERTEX
  8
0
 10
1634.564589
 20
664.799883
 42
0.039243
  0
VERTEX
  8
0
 10
1638.755256
 20
669.705592
 42
0.059544
  0
VERTEX
  8
0
 10
1641.488623
 20
674.597275
 42
0.059272
  0
VERTEX
  8
0
 10
1643.000105
 20
680.012196
 42
0.038469
  0
VERTEX
  8
0
 10
1643.500000
 20
686.500000
 42
0.035380
  0
VERTEX
  8
0
 10
1643.050274
 20
692.847758
 42
0.056795
  0
VERTEX
  8
0
 10
1641.682998
 20
698.094467
 42
0.058964
  0
VERTEX
  8
0
 10
1639.216955
 20
702.760592
 42
0.041725
  0
VERTEX
  8
0
 10
1635.453492
 20
707.344921
 42
0.036659
  0
VERTEX
  8
0
 10
1630.718766
 20
711.554291
 42
0.057552
  0
VERTEX
  8
0
 10
1626.049399
 20
714.343516
 42
0.057609
  0
VERTEX
  8
0
 10
1620.870633
 20
715.993276
 42
0.036817
  0
VERTEX
  8
0
 10
1614.592108
 20
716.748473
 42
0.011624
  0
VERTEX
  8
0
 10
1609.807410
 20
716.857873
 42
0.044367
  0
VERTEX
  8
0
 10
1606.837707
 20
716.592687
 42
0.050322
  0
VERTEX
  8
0
 10
1604.151021
 20
715.825075
 42
0.018005
  0
SEQEND
  0
POLYLINE
  8
0
 66
1
 70
1
  0
VERTEX
  8
0
 10
1600.834353
 20
385.684652
 42
0.025793
  0
VERTEX
  8
0
 10
1596.022928
 20
383.353418
 42
0.043395
  0
VERTEX
  8
0
 10
1592.295275
 20
380.860262
 42
0.045717
  0
VERTEX
  8
0
 10
1589.187237
 20
377.860922
 42
0.032648
  0
VERTEX
  8
0
 10
1586.273108
 20
374.000000
 42
0.026501
  0
VERTEX
  8
0
 10
1583.710848
 20
369.609712
 42
0.045418
  0
VERTEX
  8
0
 10
1582.121649
 20
365.682570
 42
0.045968
  0
VERTEX
  8
0
 10
1581.279191
 20
361.566384
 42
0.027910
  0
VERTEX
  8
0
 10
1581.009769
 20
356.600777
 42
0.089598
  0
VERTEX
  8
0
 10
1582.817269
 20
346.685786
 42
0.084820
  0
VERTEX
  8
0
 10
1587.993311
 20
337.816634
 42
0.082674
  0
VERTEX
  8
0
 10
1595.959138
 20
330.993097
 42
0.079261
  0
VERTEX
  8
0
 10
1605.820203
 20
326.995463
 42
0.136794
  0
VERTEX
  8
0
 10
1620.253378
 20
327.644557
 42
0.118824
  0
VERTEX
  8
0
 10
1633.170515
 20
335.624316
 42
0.118568
  0
VERTEX
  8
0
 10
1641.052159
 20
348.629597
 42
0.135817
  0
VERTEX
  8
0
 10
1641.614893
 20
363.115213
 42
0.023461
  0
VERTEX
  8
0
 10
1640.273040
 20
367.815810
 42
0.041240
  0
VERTEX
  8
0
 10
1638.672553
 20
371.524391
 42
0.042817
  0
VERTEX
  8
0
 10
1636.531136
 20
374.825685
 42
0.027651
  0
VERTEX
  8
0
 10
1633.537167
 20
378.264861
 42
0.071531
  0
VERTEX
  8
0
 10
1626.357628
 20
383.795477
 42
0.072743
  0
VERTEX
  8
0
 10
1617.950762
 20
387.040122
 42
0.074547
  0
VERTEX
  8
0
 10
1609.154083
 20
387.694826
 42
0.081450
  0
SEQEND
  0
ENDSEC
  0
EOF
