  0
SECTION
  2
HEADER
  9
$ACADVER
  1
AC1006
  9
$EXTMIN
 10
0.000000
 20
0.000000
 30
0.000000
  9
$EXTMAX
 10
4000.000000
 20
4000.000000
 30
0.000000
  0
ENDSEC
  0
SECTION
  2
ENTITIES
  0
POLYLINE
  8
0
 66
1
 70
1
  0
VERTEX
  8
0
 10
0.000000
 20
2000.000000
 42
0.000000
  0
VERTEX
  8
0
 10
0.000000
 20
0.000000
 42
0.000000
  0
VERTEX
  8
0
 10
2000.000000
 20
0.000000
 42
0.000000
  0
VERTEX
  8
0
 10
4000.000000
 20
0.000000
 42
0.000000
  0
VERTEX
  8
0
 10
4000.000000
 20
2000.000000
 42
0.000000
  0
VERTEX
  8
0
 10
4000.000000
 20
4000.000000
 42
0.000000
  0
VERTEX
  8
0
 10
2000.000000
 20
4000.000000
 42
0.000000
  0
VERTEX
  8
0
 10
0.000000
 20
4000.000000
 42
0.000000
  0
SEQEND
  0
POLYLINE
  8
0
 66
1
 70
1
  0
VERTEX
  8
0
 10
2134.490402
 20
3714.676367
 42
-0.054373
  0
VERTEX
  8
0
 10
2149.979367
 20
3707.226413
 42
-0.066616
  0
VERTEX
  8
0
 10
2162.356030
 20
3697.011629
 42
-0.064136
  0
VERTEX
  8
0
 10
2171.949200
 20
3683.564757
 42
-0.045652
  0
VERTEX
  8
0
 10
2179.170796
 20
3666.500000
 42
-0.074105
  0
VERTEX
  8
0
 10
2179.902177
 20
3662.000980
 42
-0.000672
  0
VERTEX
  8
0
 10
2180.307852
 20
3627.832566
 42
-0.001486
  0
VERTEX
  8
0
 10
2180.683474
 20
3578.122014
 42
-0.000294
  0
VERTEX
  8
0
 10
2181.039660
 20
3489.000000
 42
0.000167
  0
VERTEX
  8
0
 10
2181.462161
 20
3376.134883
 42
0.002598
  0
VERTEX
  8
0
 10
2181.820987
 20
3337.439768
 42
0.005627
  0
VERTEX
  8
0
 10
2182.357673
 20
3316.579278
 42
0.056821
  0
VERTEX
  8
0
 10
2183.658644
 20
3308.000000
 42
0.063576
  0
VERTEX
  8
0
 10
2192.804993
 20
3285.811970
 42
0.067514
  0
VERTEX
  8
0
 10
2207.089215
 20
3267.130852
 42
0.067369
  0
VERTEX
  8
0
 10
2225.863638
 20
3252.898790
 42
0.062873
  0
VERTEX
  8
0
 10
2248.182113
 20
3243.763213
 42
0.000000
  0
VERTEX
  8
0
 10
2256.500000
 20
3241.524257
 42
0.000000
  0
VERTEX
  8
0
 10
2717.750000
 20
3241.250504
 42
0.000000
  0
VERTEX
  8
0
 10
3179.000000
 20
3240.976750
 42
0.000000
  0
VERTEX
  8
0
 10
3179.000000
 20
2044.998938
 42
0.000000
  0
VERTEX
  8
0
 10
3179.000000
 20
849.021126
 42
0.000000
  0
VERTEX
  8
0
 10
2716.750000
 20
848.739071
 42
0.000000
  0
VERTEX
  8
0
 10
2254.500000
 20
848.457015
 42
0.000000
  0
VERTEX
  8
0
 10
2246.919611
 20
846.248489
 42
0.059296
  0
VERTEX
  8
0
 10
2224.680595
 20
836.794746
 42
0.068307
  0
VERTEX
  8
0
 10
2206.437129
 20
822.729004
 42
0.068456
  0
VERTEX
  8
0
 10
2192.687980
 20
804.296674
 42
0.059937
  0
VERTEX
  8
0
 10
2183.666961
 20
782.000000
 42
0.056530
  0
VERTEX
  8
0
 10
2182.365914
 20
773.494359
 42
0.005949
  0
VERTEX
  8
0
 10
2181.823085
 20
753.356122
 42
0.002692
  0
VERTEX
  8
0
 10
2181.461615
 20
715.959008
 42
0.000173
  0
VERTEX
  8
0
 10
2181.032986
 20
607.000000
 42
-0.000262
  0
VERTEX
  8
0
 10
2180.511859
 20
480.225078
 42
-0.008948
  0
VERTEX
  8
0
 10
2179.835425
 20
450.207526
 42
-0.040215
  0
VERTEX
  8
0
 10
2177.921006
 20
434.438720
 42
-0.064520
  0
VERTEX
  8
0
 10
2173.535181
 20
421.636936
 42
-0.054397
  0
VERTEX
  8
0
 10
2165.934970
 20
409.716981
 42
-0.053364
  0
VERTEX
  8
0
 10
2155.898914
 20
399.631167
 42
-0.052408
  0
VERTEX
  8
0
 10
2143.774559
 20
391.747752
 42
-0.048954
  0
VERTEX
  8
0
 10
2130.000000
 20
386.342009
 42
-0.060676
  0
VERTEX
  8
0
 10
2122.669769
 20
385.197071
 42
-0.005355
  0
VERTEX
  8
0
 10
2103.893309
 20
384.764584
 42
-0.002853
  0
VERTEX
  8
0
 10
2070.046493
 20
384.540694
 42
-0.000227
  0
VERTEX
  8
0
 10
1980.500000
 20
384.500000
 42
-0.000230
  0
VERTEX
  8
0
 10
1891.394338
 20
384.541065
 42
-0.002818
  0
VERTEX
  8
0
 10
1857.310756
 20
384.764550
 42
-0.005169
  0
VERTEX
  8
0
 10
1838.323889
 20
385.192389
 42
-0.060208
  0
VERTEX
  8
0
 10
1831.000000
 20
386.322804
 42
-0.049306
  0
VERTEX
  8
0
 10
1816.542566
 20
391.962629
 42
-0.055435
  0
VERTEX
  8
0
 10
1804.073870
 20
400.153694
 42
-0.056222
  0
VERTEX
  8
0
 10
1793.850724
 20
410.771100
 42
-0.053243
  0
VERTEX
  8
0
 10
1786.032759
 20
423.586491
 42
-0.070724
  0
VERTEX
  8
0
 10
1782.266476
 20
435.754308
 42
-0.031437
  0
VERTEX
  8
0
 10
1780.651292
 20
452.508269
 42
-0.007964
  0
VERTEX
  8
0
 10
1780.093611
 20
484.688067
 42
-0.000301
  0
VERTEX
  8
0
 10
1779.997452
 20
605.000000
 42
0.000469
  0
VERTEX
  8
0
 10
1779.920325
 20
672.919204
 42
0.000963
  0
VERTEX
  8
0
 10
1779.707547
 20
726.122529
 42
0.000412
  0
VERTEX
  8
0
 10
1779.417673
 20
769.076089
 42
0.024347
  0
VERTEX
  8
0
 10
1778.979139
 20
776.863038
 42
0.055182
  0
VERTEX
  8
0
 10
1774.968897
 20
795.209929
 42
0.058163
  0
VERTEX
  8
0
 10
1767.082914
 20
811.889714
 42
0.058880
  0
VERTEX
  8
0
 10
1755.671605
 20
826.132815
 42
0.059137
  0
VERTEX
  8
0
 10
1741.270143
 20
837.300040
 42
0.023103
  0
VERTEX
  8
0
 10
1733.849266
 20
841.308332
 42
0.027680
  0
VERTEX
  8
0
 10
1726.517142
 20
844.353959
 42
0.028141
  0
VERTEX
  8
0
 10
1719.000075
 20
846.532485
 42
0.025415
  0
VERTEX
  8
0
 10
1711.026234
 20
847.942303
 42
0.030576
  0
VERTEX
  8
0
 10
1702.449078
 20
848.483774
 42
0.000053
  0
VERTEX
  8
0
 10
1556.719305
 20
848.747082
 42
0.000323
  0
VERTEX
  8
0
 10
1368.694309
 20
848.945378
 42
0.000101
  0
VERTEX
  8
0
 10
1086.526234
 20
849.004021
 42
-0.000063
  0
VERTEX
  8
0
 10
733.567768
 20
849.050985
 42
-0.000532
  0
VERTEX
  8
0
 10
574.260224
 20
849.261693
 42
-0.000254
  0
VERTEX
  8
0
 10
472.754805
 20
849.555407
 42
-0.039367
  0
VERTEX
  8
0
 10
461.328381
 20
850.495568
 42
-0.061723
  0
VERTEX
  8
0
 10
431.791466
 20
859.119570
 42
-0.066437
  0
VERTEX
  8
0
 10
406.048791
 20
874.552071
 42
-0.066740
  0
VERTEX
  8
0
 10
385.347351
 20
896.124851
 42
-0.063205
  0
VERTEX
  8
0
 10
370.606452
 20
922.773506
 42
-0.016026
  0
VERTEX
  8
0
 10
367.779181
 20
930.592258
 42
-0.021072
  0
VERTEX
  8
0
 10
365.735258
 20
937.898239
 42
-0.019915
  0
VERTEX
  8
0
 10
364.234224
 20
945.668579
 42
-0.012185
  0
VERTEX
  8
0
 10
363.055064
 20
954.930575
 42
-0.025562
  0
VERTEX
  8
0
 10
361.998554
 20
975.568514
 42
-0.000005
  0
VERTEX
  8
0
 10
361.971798
 20
2045.534301
 42
-0.000005
  0
VERTEX
  8
0
 10
361.965202
 20
3115.758595
 42
-0.026241
  0
VERTEX
  8
0
 10
363.021343
 20
3135.867695
 42
-0.037713
  0
VERTEX
  8
0
 10
366.499758
 20
3154.947176
 42
-0.041576
  0
VERTEX
  8
0
 10
372.738585
 20
3172.650166
 42
-0.041982
  0
VERTEX
  8
0
 10
381.755062
 20
3188.927815
 42
-0.039929
  0
VERTEX
  8
0
 10
393.500000
 20
3203.765435
 42
-0.034053
  0
VERTEX
  8
0
 10
406.295254
 20
3215.765167
 42
-0.040396
  0
VERTEX
  8
0
 10
419.925147
 20
3225.180160
 42
-0.038445
  0
VERTEX
  8
0
 10
435.458037
 20
3232.624079
 42
-0.026521
  0
VERTEX
  8
0
 10
454.000000
 20
3238.707380
 42
-0.064835
  0
VERTEX
  8
0
 10
462.892046
 20
3239.910622
 42
-0.000347
  0
VERTEX
  8
0
 10
550.172447
 20
3240.287424
 42
-0.000643
  0
VERTEX
  8
0
 10
695.247934
 20
3240.626490
 42
-0.000049
  0
VERTEX
  8
0
 10
1086.500000
 20
3240.999229
 42
0.000048
  0
VERTEX
  8
0
 10
1480.014226
 20
3241.373438
 42
0.000652
  0
VERTEX
  8
0
 10
1623.821701
 20
3241.711690
 42
0.000338
  0
VERTEX
  8
0
 10
1710.197497
 20
3242.086008
 42
0.070820
  0
VERTEX
  8
0
 10
1718.500000
 20
3243.310371
 42
0.018173
  0
VERTEX
  8
0
 10
1728.259369
 20
3246.589635
 42
0.027893
  0
VERTEX
  8
0
 10
1736.412724
 20
3250.194313
 42
0.029411
  0
VERTEX
  8
0
 10
1743.792559
 20
3254.526710
 42
0.023674
  0
VERTEX
  8
0
 10
1751.190093
 20
3260.000000
 42
0.046509
  0
VERTEX
  8
0
 10
1759.526761
 20
3268.202437
 42
0.035682
  0
VERTEX
  8
0
 10
1767.050840
 20
3278.538607
 42
0.035009
  0
VERTEX
  8
0
 10
1773.179599
 20
3290.086932
 42
0.039595
  0
VERTEX
  8
0
 10
1777.348820
 20
3301.919374
 42
0.056114
  0
VERTEX
  8
0
 10
1778.640638
 20
3310.613183
 42
0.005362
  0
VERTEX
  8
0
 10
1779.170400
 20
3332.077400
 42
0.002523
  0
VERTEX
  8
0
 10
1779.524187
 20
3371.798897
 42
0.000164
  0
VERTEX
  8
0
 10
1779.931181
 20
3487.000000
 42
0.000000
  0
VERTEX
  8
0
 10
1780.500000
 20
3664.500000
 42
0.000000
  0
VERTEX
  8
0
 10
1782.835447
 20
3671.000000
 42
-0.040402
  0
VERTEX
  8
0
 10
1788.659373
 20
3683.844414
 42
-0.049786
  0
VERTEX
  8
0
 10
1796.147088
 20
3694.650772
 42
-0.051346
  0
VERTEX
  8
0
 10
1805.408617
 20
3703.502205
 42
-0.047654
  0
VERTEX
  8
0
 10
1816.504097
 20
3710.534853
 42
-0.063374
  0
VERTEX
  8
0
 10
1829.337889
 20
3715.119583
 42
-0.043398
  0
VERTEX
  8
0
 10
1844.697738
 20
3717.124379
 42
-0.010700
  0
VERTEX
  8
0
 10
1873.194282
 20
3717.741357
 42
-0.000383
  0
VERTEX
  8
0
 10
1982.500000
 20
3717.684808
 42
0.000000
  0
VERTEX
  8
0
 10
2126.500000
 20
3717.500000
 42
0.000000
  0
SEQEND
  0
POLYLINE
  8
0
 66
1
 70
1
  0
VERTEX
  8
0
 10
1981.343746
 20
3568.987418
 42
0.086334
  0
VERTEX
  8
0
 10
1971.186322
 20
3564.998230
 42
0.088036
  0
VERTEX
  8
0
 10
1963.051619
 20
3557.833428
 42
0.087041
  0
VERTEX
  8
0
 10
1957.812416
 20
3548.230466
 42
0.081997
  0
VERTEX
  8
0
 10
1956.009769
 20
3537.212487
 42
0.077718
  0
VERTEX
  8
0
 10
1957.361565
 20
3528.649840
 42
0.067812
  0
VERTEX
  8
0
 10
1961.287231
 20
3520.462960
 42
0.067048
  0
VERTEX
  8
0
 10
1967.313008
 20
3513.542928
 42
0.072691
  0
VERTEX
  8
0
 10
1974.803644
 20
3508.684995
 42
0.067264
  0
VERTEX
  8
0
 10
1980.661191
 20
3506.899379
 42
0.043483
  0
VERTEX
  8
0
 10
1987.741159
 20
3506.369852
 42
0.043587
  0
VERTEX
  8
0
 10
1994.777675
 20
3507.071424
 42
0.069399
  0
VERTEX
  8
0
 10
2000.500000
 20
3509.000000
 42
0.112640
  0
VERTEX
  8
0
 10
2012.375522
 20
3518.761088
 42
0.120728
  0
VERTEX
  8
0
 10
2018.468939
 20
3532.472726
 42
0.122653
  0
VERTEX
  8
0
 10
2017.487586
 20
3547.276338
 42
0.118637
  0
VERTEX
  8
0
 10
2009.687480
 20
3560.100546
 42
0.063156
  0
VERTEX
  8
0
 10
2003.636417
 20
3564.816529
 42
0.058079
  0
VERTEX
  8
0
 10
1996.430000
 20
3568.033500
 42
0.058738
  0
VERTEX
  8
0
 10
1988.759913
 20
3569.480716
 42
0.067888
  0
SEQEND
  0
POLYLINE
  8
0
 66
1
 70
1
  0
VERTEX
  8
0
 10
2415.500000
 20
3199.210003
 42
0.054240
  0
VERTEX
  8
0
 10
2407.829884
 20
3195.522564
 42
0.054637
  0
VERTEX
  8
0
 10
2401.152787
 20
3190.279497
 42
0.054709
  0
VERTEX
  8
0
 10
2395.777268
 20
3183.721773
 42
0.054664
  0
VERTEX
  8
0
 10
2391.950205
 20
3176.152539
 42
0.058771
  0
VERTEX
  8
0
 10
2390.302694
 20
3169.463615
 42
0.043087
  0
VERTEX
  8
0
 10
2390.012317
 20
3161.819678
 42
0.043109
  0
VERTEX
  8
0
 10
2391.035986
 20
3154.244253
 42
0.059065
  0
VERTEX
  8
0
 10
2393.318377
 20
3147.760570
 42
0.087363
  0
VERTEX
  8
0
 10
2401.008475
 20
3137.230014
 42
0.082234
  0
VERTEX
  8
0
 10
2411.982681
 20
3129.695351
 42
0.084126
  0
VERTEX
  8
0
 10
2424.563888
 20
3126.217399
 42
0.098020
  0
VERTEX
  8
0
 10
2436.896043
 20
3127.374669
 42
0.093490
  0
VERTEX
  8
0
 10
2449.730760
 20
3133.982038
 42
0.092722
  0
VERTEX
  8
0
 10
2459.320096
 20
3144.827128
 42
0.095004
  0
VERTEX
  8
0
 10
2464.183352
 20
3158.163797
 42
0.104121
  0
VERTEX
  8
0
 10
2463.533493
 20
3171.902685
 42
0.055494
  0
VERTEX
  8
0
 10
2460.352124
 20
3180.212417
 42
0.055927
  0
VERTEX
  8
0
 10
2455.427575
 20
3187.595367
 42
0.056142
  0
VERTEX
  8
0
 10
2449.009079
 20
3193.679344
 42
0.056756
  0
VERTEX
  8
0
 10
2441.420341
 20
3198.157301
 42
0.059975
  0
VERTEX
  8
0
 10
2435.693729
 20
3199.928101
 42
0.034889
  0
VERTEX
  8
0
 10
2428.533741
 20
3200.721359
 42
0.034897
  0
VERTEX
  8
0
 10
2421.337279
 20
3200.511346
 42
0.060278
  0
SEQEND
  0
POLYLINE
  8
0
 66
1
 70
1
  0
VERTEX
  8
0
 10
447.195217
 20
3156.962062
 42
0.097221
  0
VERTEX
  8
0
 10
435.549528
 20
3152.111033
 42
0.094893
  0
VERTEX
  8
0
 10
426.485679
 20
3143.184851
 42
0.095707
  0
VERTEX
  8
0
 10
421.414589
 20
3131.612348
 42
0.100900
  0
VERTEX
  8
0
 10
421.153480
 20
3119.208149
 42
0.037339
  0
VERTEX
  8
0
 10
422.347709
 20
3114.621538
 42
0.042100
  0
VERTEX
  8
0
 10
424.177084
 20
3110.452606
 42
0.039077
  0
VERTEX
  8
0
 10
426.805661
 20
3106.403319
 42
0.025652
  0
VERTEX
  8
0
 10
430.411137
 20
3102.167478
 42
0.124523
  0
VERTEX
  8
0
 10
443.423193
 20
3093.890321
 42
0.126010
  0
VERTEX
  8
0
 10
458.744975
 20
3092.845584
 42
0.123063
  0
VERTEX
  8
0
 10
472.956615
 20
3099.320613
 42
0.115505
  0
VERTEX
  8
0
 10
482.852038
 20
3111.852038
 42
0.058441
  0
VERTEX
  8
0
 10
484.931095
 20
3118.091166
 42
0.050911
  0
VERTEX
  8
0
 10
485.640614
 20
3124.943784
 42
0.050989
  0
VERTEX
  8
0
 10
484.950829
 20
3131.787446
 42
0.059073
  0
VERTEX
  8
0
 10
482.889630
 20
3138.000000
 42
0.081733
  0
VERTEX
  8
0
 10
476.694791
 20
3147.026591
 42
0.079645
  0
VERTEX
  8
0
 10
467.884012
 20
3153.686778
 42
0.081399
  0
VERTEX
  8
0
 10
457.614811
 20
3157.157033
 42
0.091327
  0
SEQEND
  0
POLYLINE
  8
0
 66
1
 70
1
  0
VERTEX
  8
0
 10
2264.993526
 20
3136.065659
 42
0.058990
  0
VERTEX
  8
0
 10
2259.443447
 20
3133.632694
 42
0.047486
  0
VERTEX
  8
0
 10
2254.159612
 20
3129.813399
 42
0.046180
  0
VERTEX
  8
0
 10
2249.546709
 20
3124.937793
 42
0.048347
  0
VERTEX
  8
0
 10
2245.986726
 20
3119.369079
 42
0.027753
  0
VERTEX
  8
0
 10
2244.718843
 20
3116.504527
 42
0.042606
  0
VERTEX
  8
0
 10
2243.979869
 20
3113.895819
 42
0.035048
  0
VERTEX
  8
0
 10
2243.610480
 20
3110.853201
 42
0.012687
  0
VERTEX
  8
0
 10
2243.500000
 20
3106.500000
 42
0.012252
  0
VERTEX
  8
0
 10
2243.612297
 20
3101.917759
 42
0.042026
  0
VERTEX
  8
0
 10
2244.006820
 20
3098.969069
 42
0.049731
  0
VERTEX
  8
0
 10
2244.850032
 20
3096.393476
 42
0.022541
  0
VERTEX
  8
0
 10
2246.429829
 20
3093.211599
 42
0.106611
  0
VERTEX
  8
0
 10
2256.164409
 20
3082.075276
 42
0.120316
  0
VERTEX
  8
0
 10
2269.222946
 20
3076.545600
 42
0.123027
  0
VERTEX
  8
0
 10
2283.132506
 20
3077.713186
 42
0.114707
  0
VERTEX
  8
0
 10
2295.274950
 20
3085.274950
 42
0.118568
  0
VERTEX
  8
0
 10
2302.744572
 20
3097.475601
 42
0.122139
  0
VERTEX
  8
0
 10
2303.738443
 20
3111.598456
 42
0.120694
  0
VERTEX
  8
0
 10
2298.006955
 20
3124.676475
 42
0.114019
  0
VERTEX
  8
0
 10
2286.777804
 20
3133.953169
 42
0.017949
  0
VERTEX
  8
0
 10
2283.321958
 20
3135.527721
 42
0.040611
  0
VERTEX
  8
0
 10
2280.586941
 20
3136.405162
 42
0.041350
  0
VERTEX
  8
0
 10
2277.776522
 20
3136.820181
 42
0.019252
  0
VERTEX
  8
0
 10
2274.090278
 20
3136.914047
 42
0.009897
  0
VERTEX
  8
0
 10
2271.383372
 20
3136.825132
 42
0.010091
  0
VERTEX
  8
0
 10
2268.699617
 20
3136.629378
 42
0.009907
  0
VERTEX
  8
0
 10
2266.376876
 20
3136.366238
 42
0.040690
  0
SEQEND
  0
POLYLINE
  8
0
 66
1
 70
1
  0
VERTEX
  8
0
 10
803.500000
 20
3036.638816
 42
0.103827
  0
VERTEX
  8
0
 10
789.275951
 20
3029.612767
 42
0.122201
  0
VERTEX
  8
0
 10
780.063415
 20
3017.788675
 42
0.127979
  0
VERTEX
  8
0
 10
777.692582
 20
3003.472498
 42
0.120233
  0
VERTEX
  8
0
 10
782.495940
 20
2989.438892
 42
0.108605
  0
VERTEX
  8
0
 10
792.749275
 20
2979.186778
 42
0.121648
  0
VERTEX
  8
0
 10
805.948574
 20
2974.711813
 42
0.121256
  0
VERTEX
  8
0
 10
819.746879
 20
2976.890049
 42
0.107456
  0
VERTEX
  8
0
 10
831.672511
 20
2985.260542
 42
0.063129
  0
VERTEX
  8
0
 10
836.220548
 20
2991.649762
 42
0.064515
  0
VERTEX
  8
0
 10
838.989901
 20
2998.925852
 42
0.065265
  0
VERTEX
  8
0
 10
839.793605
 20
3006.589951
 42
0.067305
  0
VERTEX
  8
0
 10
838.576578
 20
3014.118516
 42
0.076036
  0
VERTEX
  8
0
 10
833.133178
 20
3025.489956
 42
0.100791
  0
VERTEX
  8
0
 10
824.929849
 20
3033.470892
 42
0.107927
  0
VERTEX
  8
0
 10
814.722514
 20
3037.263307
 42
0.098466
  0
SEQEND
  0
POLYLINE
  8
0
 66
1
 70
1
  0
VERTEX
  8
0
 10
3000.500000
 20
3002.926692
 42
0.123275
  0
VERTEX
  8
0
 10
2989.459012
 20
2997.097303
 42
0.110446
  0
VERTEX
  8
0
 10
2981.923836
 20
2986.535938
 42
0.112024
  0
VERTEX
  8
0
 10
2979.669016
 20
2973.900237
 42
0.129865
  0
VERTEX
  8
0
 10
2983.326627
 20
2962.274641
 42
0.083865
  0
VERTEX
  8
0
 10
2990.675985
 20
2954.069519
 42
0.098051
  0
VERTEX
  8
0
 10
2999.948385
 20
2949.271114
 42
0.101066
  0
VERTEX
  8
0
 10
3010.120060
 20
2948.449288
 42
0.094683
  0
VERTEX
  8
0
 10
3020.060408
 20
2951.629395
 42
0.036327
  0
VERTEX
  8
0
 10
3024.200365
 20
2954.289134
 42
0.049474
  0
VERTEX
  8
0
 10
3027.467770
 20
2957.287832
 42
0.046699
  0
VERTEX
  8
0
 10
3030.214819
 20
2961.007934
 42
0.027973
  0
VERTEX
  8
0
 10
3032.787259
 20
2965.868203
 42
0.108145
  0
VERTEX
  8
0
 10
3034.879232
 20
2975.429050
 42
0.093521
  0
VERTEX
  8
0
 10
3032.970776
 20
2985.540931
 42
0.090221
  0
VERTEX
  8
0
 10
3027.404273
 20
2994.559429
 42
0.091782
  0
VERTEX
  8
0
 10
3019.047453
 20
3000.975791
 42
0.057025
  0
VERTEX
  8
0
 10
3015.035648
 20
3002.475858
 42
0.034787
  0
VERTEX
  8
0
 10
3010.049112
 20
3003.354151
 42
0.034570
  0
VERTEX
  8
0
 10
3004.928425
 20
3003.536968
 42
0.051806
  0
SEQEND
  0
POLYLINE
  8
0
 66
1
 70
1
  0
VERTEX
  8
0
 10
2601.236039
 20
2999.999818
 42
0.021911
  0
VERTEX
  8
0
 10
2598.657751
 20
2998.549870
 42
0.019075
  0
VERTEX
  8
0
 10
2596.090656
 20
2996.815214
 42
0.019504
  0
VERTEX
  8
0
 10
2593.888498
 20
2995.065537
 42
0.052246
  0
VERTEX
  8
0
 10
2592.516042
 20
2993.609919
 42
0.078662
  0
VERTEX
  8
0
 10
2587.468017
 20
2984.249861
 42
0.104031
  0
VERTEX
  8
0
 10
2586.212968
 20
2974.671396
 42
0.105366
  0
VERTEX
  8
0
 10
2588.922745
 20
2965.489978
 42
0.082470
  0
VERTEX
  8
0
 10
2595.320747
 20
2957.271995
 42
0.050067
  0
VERTEX
  8
0
 10
2599.019786
 20
2954.491002
 42
0.036061
  0
VERTEX
  8
0
 10
2603.621924
 20
2952.138659
 42
0.036662
  0
VERTEX
  8
0
 10
2608.372147
 20
2950.526756
 42
0.063547
  0
VERTEX
  8
0
 10
2612.500000
 20
2950.000000
 42
0.115857
  0
VERTEX
  8
0
 10
2621.778217
 20
2952.179141
 42
0.081185
  0
VERTEX
  8
0
 10
2630.528870
 20
2958.471130
 42
0.081185
  0
VERTEX
  8
0
 10
2636.820859
 20
2967.221783
 42
0.115857
  0
VERTEX
  8
0
 10
2639.000000
 20
2976.500000
 42
0.063547
  0
VERTEX
  8
0
 10
2638.473244
 20
2980.627853
 42
0.036662
  0
VERTEX
  8
0
 10
2636.861341
 20
2985.378076
 42
0.036061
  0
VERTEX
  8
0
 10
2634.508998
 20
2989.980214
 42
0.050067
  0
VERTEX
  8
0
 10
2631.728005
 20
2993.679253
 42
0.038284
  0
VERTEX
  8
0
 10
2627.641347
 20
2997.482959
 42
0.053063
  0
VERTEX
  8
0
 10
2623.422566
 20
3000.169217
 42
0.054209
  0
VERTEX
  8
0
 10
2618.805447
 20
3001.868512
 42
0.042406
  0
VERTEX
  8
0
 10
2613.529412
 20
3002.717704
 42
0.020540
  0
VERTEX
  8
0
 10
2609.998172
 20
3002.836929
 42
0.052614
  0
VERTEX
  8
0
 10
2607.459887
 20
3002.550278
 42
0.047971
  0
VERTEX
  8
0
 10
2604.904805
 20
3001.722072
 42
0.014789
  0
SEQEND
  0
POLYLINE
  8
0
 66
1
 70
1
  0
VERTEX
  8
0
 10
429.000000
 20
2045.442388
 42
0.000000
  0
VERTEX
  8
0
 10
429.000000
 20
1176.750000
 42
0.000000
  0
VERTEX
  8
0
 10
432.241541
 20
1177.398308
 42
0.014893
  0
VERTEX
  8
0
 10
439.511014
 20
1179.078795
 42
0.000012
  0
VERTEX
  8
0
 10
618.771199
 20
1226.188191
 42
0.000002
  0
VERTEX
  8
0
 10
800.818856
 20
1274.035795
 42
0.074274
  0
VERTEX
  8
0
 10
802.225251
 20
1274.639213
 42
0.259874
  0
VERTEX
  8
0
 10
802.818766
 20
1275.703468
 42
0.000000
  0
VERTEX
  8
0
 10
802.988351
 20
2045.503131
 42
0.000000
  0
VERTEX
  8
0
 10
803.156963
 20
2815.406639
 42
0.414278
  0
VERTEX
  8
0
 10
802.563731
 20
2816.000000
 42
-0.064262
  0
VERTEX
  8
0
 10
801.852580
 20
2816.091779
 42
-0.000000
  0
VERTEX
  8
0
 10
617.523705
 20
2864.475419
 42
-0.000003
  0
VERTEX
  8
0
 10
434.917977
 20
2912.408016
 42
-0.010484
  0
VERTEX
  8
0
 10
430.750000
 20
2913.596044
 42
0.503949
  0
VERTEX
  8
0
 10
429.511100
 20
2912.683289
 42
0.000053
  0
VERTEX
  8
0
 10
429.250349
 20
2789.785756
 42
0.000470
  0
VERTEX
  8
0
 10
429.037264
 20
2591.768946
 42
0.000034
  0
SEQEND
  0
POLYLINE
  8
0
 66
1
 70
1
  0
VERTEX
  8
0
 10
2223.321433
 20
2807.206016
 42
0.067815
  0
VERTEX
  8
0
 10
2214.383221
 20
2802.568706
 42
0.081220
  0
VERTEX
  8
0
 10
2207.624488
 20
2795.934555
 42
0.083147
  0
VERTEX
  8
0
 10
2203.440660
 20
2787.630420
 42
0.075375
  0
VERTEX
  8
0
 10
2202.000789
 20
2778.124273
 42
0.080921
  0
VERTEX
  8
0
 10
2203.230923
 20
2770.579906
 42
0.060031
  0
VERTEX
  8
0
 10
2206.857956
 20
2762.935975
 42
0.059393
  0
VERTEX
  8
0
 10
2212.251373
 20
2756.288228
 42
0.074731
  0
VERTEX
  8
0
 10
2218.690263
 20
2751.678184
 42
0.047397
  0
VERTEX
  8
0
 10
2222.820799
 20
2750.040571
 42
0.034137
  0
VERTEX
  8
0
 10
2227.669184
 20
2748.984421
 42
0.034249
  0
VERTEX
  8
0
 10
2232.592020
 20
2748.600822
 42
0.049218
  0
VERTEX
  8
0
 10
2236.944718
 20
2748.989516
 42
0.036357
  0
VERTEX
  8
0
 10
2242.007777
 20
2750.336953
 42
0.047343
  0
VERTEX
  8
0
 10
2246.370858
 20
2752.324235
 42
0.046349
  0
VERTEX
  8
0
 10
2250.352006
 20
2755.134356
 42
0.032814
  0
VERTEX
  8
0
 10
2254.270538
 20
2758.956008
 42
0.040613
  0
VERTEX
  8
0
 10
2257.691192
 20
2763.445126
 42
0.048985
  0
VERTEX
  8
0
 10
2260.100931
 20
2768.164944
 42
0.049707
  0
VERTEX
  8
0
 10
2261.521665
 20
2773.203553
 42
0.043903
  0
VERTEX
  8
0
 10
2262.000000
 20
2778.640626
 42
0.122717
  0
VERTEX
  8
0
 10
2258.675974
 20
2791.980179
 42
0.112028
  0
VERTEX
  8
0
 10
2249.408383
 20
2802.728619
 42
0.114280
  0
VERTEX
  8
0
 10
2236.577124
 20
2808.283355
 42
0.131791
  0
SEQEND
  0
POLYLINE
  8
0
 66
1
 70
1
  0
VERTEX
  8
0
 10
846.697990
 20
2803.556065
 42
0.065722
  0
VERTEX
  8
0
 10
840.052159
 20
2800.147708
 42
0.057643
  0
VERTEX
  8
0
 10
834.184129
 20
2794.998006
 42
0.057650
  0
VERTEX
  8
0
 10
829.647316
 20
2788.645438
 42
0.065777
  0
VERTEX
  8
0
 10
826.922160
 20
2781.694425
 42
0.121970
  0
VERTEX
  8
0
 10
826.928296
 20
2768.641201
 42
0.110434
  0
VERTEX
  8
0
 10
832.966303
 20
2756.551314
 42
0.108543
  0
VERTEX
  8
0
 10
843.686534
 20
2748.033864
 42
0.114317
  0
VERTEX
  8
0
 10
856.787513
 20
2745.000789
 42
0.094665
  0
VERTEX
  8
0
 10
866.016555
 20
2746.765252
 42
0.073420
  0
VERTEX
  8
0
 10
874.889666
 20
2751.895871
 42
0.073986
  0
VERTEX
  8
0
 10
881.840056
 20
2759.322806
 42
0.099351
  0
VERTEX
  8
0
 10
885.475460
 20
2767.767657
 42
0.080502
  0
VERTEX
  8
0
 10
885.975097
 20
2778.212413
 42
0.086444
  0
VERTEX
  8
0
 10
883.102608
 20
2788.005423
 42
0.086680
  0
VERTEX
  8
0
 10
877.097246
 20
2796.229739
 42
0.081499
  0
VERTEX
  8
0
 10
868.540370
 20
2802.140814
 42
0.048512
  0
VERTEX
  8
0
 10
863.224843
 20
2804.050693
 42
0.045854
  0
VERTEX
  8
0
 10
857.538924
 20
2804.946984
 42
0.046710
  0
VERTEX
  8
0
 10
851.893351
 20
2804.785203
 42
0.055212
  0
SEQEND
  0
POLYLINE
  8
0
 66
1
 70
1
  0
VERTEX
  8
0
 10
3069.047234
 20
2709.885485
 42
0.063188
  0
VERTEX
  8
0
 10
3063.059404
 20
2707.205526
 42
0.041309
  0
VERTEX
  8
0
 10
3056.936538
 20
2702.744924
 42
0.040896
  0
VERTEX
  8
0
 10
3051.545999
 20
2697.261634
 42
0.056407
  0
VERTEX
  8
0
 10
3047.751146
 20
2691.500000
 42
0.049645
  0
VERTEX
  8
0
 10
3046.138715
 20
2687.349226
 42
0.026490
  0
VERTEX
  8
0
 10
3044.944774
 20
2681.968328
 42
0.026485
  0
VERTEX
  8
0
 10
3044.325650
 20
2676.484463
 42
0.049075
  0
VERTEX
  8
0
 10
3044.498419
 20
2672.011495
 42
0.050098
  0
VERTEX
  8
0
 10
3045.789596
 20
2666.660976
 42
0.034387
  0
VERTEX
  8
0
 10
3048.255310
 20
2660.919686
 42
0.034287
  0
VERTEX
  8
0
 10
3051.498117
 20
2655.545820
 42
0.048392
  0
VERTEX
  8
0
 10
3055.133614
 20
2651.300750
 42
0.090281
  0
VERTEX
  8
0
 10
3065.844606
 20
2644.193903
 42
0.092370
  0
VERTEX
  8
0
 10
3078.286847
 20
2641.391684
 42
0.092874
  0
VERTEX
  8
0
 10
3090.847147
 20
2643.263156
 42
0.092460
  0
VERTEX
  8
0
 10
3101.900055
 20
2649.555320
 42
0.047111
  0
VERTEX
  8
0
 10
3104.991391
 20
2652.713352
 42
0.024145
  0
VERTEX
  8
0
 10
3108.269555
 20
2657.187850
 42
0.024116
  0
VERTEX
  8
0
 10
3111.129106
 20
2662.004171
 42
0.043045
  0
VERTEX
  8
0
 10
3112.928304
 20
2666.241575
 42
0.075994
  0
VERTEX
  8
0
 10
3114.316163
 20
2674.638653
 42
0.062539
  0
VERTEX
  8
0
 10
3113.292570
 20
2683.673396
 42
0.061551
  0
VERTEX
  8
0
 10
3110.032943
 20
2692.315628
 42
0.068584
  0
VERTEX
  8
0
 10
3104.854887
 20
2699.559920
 42
0.034834
  0
VERTEX
  8
0
 10
3099.298433
 20
2704.670552
 42
0.059618
  0
VERTEX
  8
0
 10
3093.951085
 20
2707.985159
 42
0.061515
  0
VERTEX
  8
0
 10
3088.093769
 20
2709.880332
 42
0.039741
  0
VERTEX
  8
0
 10
3081.000000
 20
2710.668198
 42
0.012098
  0
VERTEX
  8
0
 10
3077.492531
 20
2710.692664
 42
0.012043
  0
VERTEX
  8
0
 10
3073.982625
 20
2710.547604
 42
0.011963
  0
VERTEX
  8
0
 10
3070.924695
 20
2710.273755
 42
0.045376
  0
SEQEND
  0
POLYLINE
  8
0
 66
1
 70
1
  0
VERTEX
  8
0
 10
3078.500000
 20
2549.175880
 42
0.059957
  0
VERTEX
  8
0
 10
3072.831417
 20
2545.613245
 42
0.080067
  0
VERTEX
  8
0
 10
3068.783995
 20
2541.091744
 42
0.080648
  0
VERTEX
  8
0
 10
3066.381393
 20
2535.554572
 42
0.061840
  0
VERTEX
  8
0
 10
3065.558324
 20
2529.000000
 42
0.048779
  0
VERTEX
  8
0
 10
3066.048381
 20
2523.915466
 42
0.064598
  0
VERTEX
  8
0
 10
3067.521114
 20
2519.509485
 42
0.062615
  0
VERTEX
  8
0
 10
3070.113220
 20
2515.524168
 42
0.042415
  0
VERTEX
  8
0
 10
3073.952530
 20
2511.693397
 42
0.118384
  0
VERTEX
  8
0
 10
3081.920065
 20
2507.707769
 42
0.108171
  0
VERTEX
  8
0
 10
3091.112454
 20
2507.591400
 42
0.105009
  0
VERTEX
  8
0
 10
3099.729032
 20
2511.357929
 42
0.105551
  0
VERTEX
  8
0
 10
3106.052586
 20
2518.295542
 42
0.019553
  0
VERTEX
  8
0
 10
3107.717778
 20
2521.419692
 42
0.056153
  0
VERTEX
  8
0
 10
3108.532523
 20
2523.734613
 42
0.052887
  0
VERTEX
  8
0
 10
3108.837138
 20
2526.249223
 42
0.015873
  0
VERTEX
  8
0
 10
3108.771996
 20
2530.110515
 42
0.049930
  0
VERTEX
  8
0
 10
3107.945048
 20
2535.642360
 42
0.067692
  0
VERTEX
  8
0
 10
3106.057701
 20
2540.322181
 42
0.068519
  0
VERTEX
  8
0
 10
3103.010536
 20
2544.286369
 42
0.052753
  0
VERTEX
  8
0
 10
3098.739889
 20
2547.692236
 42
0.069531
  0
VERTEX
  8
0
 10
3094.122498
 20
2549.804124
 42
0.054293
  0
VERTEX
  8
0
 10
3088.692604
 20
2550.801470
 42
0.054724
  0
VERTEX
  8
0
 10
3083.225531
 20
2550.603655
 42
0.074091
  0
SEQEND
  0
POLYLINE
  8
0
 66
1
 70
1
  0
VERTEX
  8
0
 10
2633.980967
 20
2542.050408
 42
0.092269
  0
VERTEX
  8
0
 10
2626.732742
 20
2536.301927
 42
0.106039
  0
VERTEX
  8
0
 10
2622.466756
 20
2528.584685
 42
0.106041
  0
VERTEX
  8
0
 10
2621.740999
 20
2519.796876
 42
0.092275
  0
VERTEX
  8
0
 10
2624.588745
 20
2510.995354
 42
0.059057
  0
VERTEX
  8
0
 10
2629.671255
 20
2503.799177
 42
0.082170
  0
VERTEX
  8
0
 10
2635.823593
 20
2498.885594
 42
0.092219
  0
VERTEX
  8
0
 10
2642.648193
 20
2496.578227
 42
0.097504
  0
VERTEX
  8
0
 10
2649.705979
 20
2496.947549
 42
0.090629
  0
VERTEX
  8
0
 10
2657.815510
 20
2500.641637
 42
0.093961
  0
VERTEX
  8
0
 10
2663.975521
 20
2506.928297
 42
0.098455
  0
VERTEX
  8
0
 10
2667.212027
 20
2514.766853
 42
0.110845
  0
VERTEX
  8
0
 10
2667.004538
 20
2522.903857
 42
0.049883
  0
VERTEX
  8
0
 10
2664.862148
 20
2528.847275
 42
0.048025
  0
VERTEX
  8
0
 10
2661.563344
 20
2534.330280
 42
0.049808
  0
VERTEX
  8
0
 10
2657.424058
 20
2538.889717
 42
0.064852
  0
VERTEX
  8
0
 10
2652.789838
 20
2542.091583
 42
0.074907
  0
VERTEX
  8
0
 10
2648.603103
 20
2543.504845
 42
0.044580
  0
VERTEX
  8
0
 10
2643.350148
 20
2543.962541
 42
0.044642
  0
VERTEX
  8
0
 10
2638.113923
 20
2543.482540
 42
0.076614
  0
SEQEND
  0
POLYLINE
  8
0
 66
1
 70
1
  0
VERTEX
  8
0
 10
836.920447
 20
2148.924179
 42
0.128711
  0
VERTEX
  8
0
 10
823.613610
 20
2143.144629
 42
0.123971
  0
VERTEX
  8
0
 10
814.619580
 20
2131.516440
 42
0.123805
  0
VERTEX
  8
0
 10
812.198133
 20
2117.002379
 42
0.128166
  0
VERTEX
  8
0
 10
816.990847
 20
2103.278624
 42
0.044193
  0
VERTEX
  8
0
 10
820.621866
 20
2098.781643
 42
0.043975
  0
VERTEX
  8
0
 10
824.992286
 20
2094.984565
 42
0.044252
  0
VERTEX
  8
0
 10
829.931282
 20
2092.030863
 42
0.046006
  0
VERTEX
  8
0
 10
835.250233
 20
2090.037410
 42
0.098881
  0
VERTEX
  8
0
 10
844.727622
 20
2089.377552
 42
0.082927
  0
VERTEX
  8
0
 10
854.388794
 20
2092.293044
 42
0.079684
  0
VERTEX
  8
0
 10
862.905097
 20
2098.342000
 42
0.080625
  0
VERTEX
  8
0
 10
869.062181
 20
2106.728847
 42
0.072174
  0
VERTEX
  8
0
 10
871.051615
 20
2112.569933
 42
0.048632
  0
VERTEX
  8
0
 10
871.664507
 20
2119.598230
 42
0.048448
  0
VERTEX
  8
0
 10
870.906922
 20
2126.649689
 42
0.069424
  0
VERTEX
  8
0
 10
868.798534
 20
2132.563455
 42
0.074362
  0
VERTEX
  8
0
 10
863.083300
 20
2140.409459
 42
0.079824
  0
VERTEX
  8
0
 10
855.446180
 20
2146.018657
 42
0.080390
  0
VERTEX
  8
0
 10
846.484758
 20
2148.926229
 42
0.076910
  0
SEQEND
  0
POLYLINE
  8
0
 66
1
 70
1
  0
VERTEX
  8
0
 10
2198.343746
 20
2148.943076
 42
0.057839
  0
VERTEX
  8
0
 10
2191.523140
 20
2146.778708
 42
0.056722
  0
VERTEX
  8
0
 10
2185.330872
 20
2143.099216
 42
0.057021
  0
VERTEX
  8
0
 10
2180.151994
 20
2138.143422
 42
0.059689
  0
VERTEX
  8
0
 10
2176.317863
 20
2132.217253
 42
0.125428
  0
VERTEX
  8
0
 10
2173.470502
 20
2118.554473
 42
0.118582
  0
VERTEX
  8
0
 10
2177.406134
 20
2104.875698
 42
0.116652
  0
VERTEX
  8
0
 10
2187.209217
 20
2094.320417
 42
0.118598
  0
VERTEX
  8
0
 10
2200.643580
 20
2089.355807
 42
0.104567
  0
VERTEX
  8
0
 10
2211.159604
 20
2090.310011
 42
0.088871
  0
VERTEX
  8
0
 10
2221.084849
 20
2095.428629
 42
0.086855
  0
VERTEX
  8
0
 10
2228.797014
 20
2103.805566
 42
0.093578
  0
VERTEX
  8
0
 10
2232.957360
 20
2114.095583
 42
0.130919
  0
VERTEX
  8
0
 10
2232.087291
 20
2127.942063
 42
0.115236
  0
VERTEX
  8
0
 10
2224.471639
 20
2140.292129
 42
0.115280
  0
VERTEX
  8
0
 10
2212.175956
 20
2147.987523
 42
0.131093
  0
SEQEND
  0
POLYLINE
  8
0
 66
1
 70
1
  0
VERTEX
  8
0
 10
2636.000000
 20
2098.405695
 42
0.127858
  0
VERTEX
  8
0
 10
2627.215556
 20
2091.544465
 42
0.127478
  0
VERTEX
  8
0
 10
2622.872603
 20
2081.266205
 42
0.128214
  0
VERTEX
  8
0
 10
2624.079772
 20
2070.218955
 42
0.130113
  0
VERTEX
  8
0
 10
2630.527242
 20
2061.238157
 42
0.127169
  0
VERTEX
  8
0
 10
2640.526116
 20
2056.574862
 42
0.130495
  0
VERTEX
  8
0
 10
2651.427343
 20
2057.406159
 42
0.128108
  0
VERTEX
  8
0
 10
2660.626953
 20
2063.571947
 42
0.120283
  0
VERTEX
  8
0
 10
2665.916592
 20
2073.583038
 42
0.097441
  0
VERTEX
  8
0
 10
2666.279417
 20
2080.500125
 42
0.081460
  0
VERTEX
  8
0
 10
2664.071720
 20
2087.526739
 42
0.079252
  0
VERTEX
  8
0
 10
2659.655856
 20
2093.645222
 42
0.084355
  0
VERTEX
  8
0
 10
2653.640328
 20
2097.932068
 42
0.060042
  0
VERTEX
  8
0
 10
2649.528967
 20
2099.344452
 42
0.046062
  0
VERTEX
  8
0
 10
2644.808772
 20
2099.908354
 42
0.046288
  0
VERTEX
  8
0
 10
2640.093930
 20
2099.598297
 42
0.062726
  0
SEQEND
  0
POLYLINE
  8
0
 66
1
 70
1
  0
VERTEX
  8
0
 10
3081.747969
 20
2097.627281
 42
0.120920
  0
VERTEX
  8
0
 10
3072.289631
 20
2091.209589
 42
0.130156
  0
VERTEX
  8
0
 10
3067.194777
 20
2081.305145
 42
0.132077
  0
VERTEX
  8
0
 10
3067.706040
 20
2070.291673
 42
0.126286
  0
VERTEX
  8
0
 10
3073.658417
 20
2060.803048
 42
0.081754
  0
VERTEX
  8
0
 10
3078.923707
 20
2057.230583
 42
0.069161
  0
VERTEX
  8
0
 10
3085.368246
 20
2055.273023
 42
0.069927
  0
VERTEX
  8
0
 10
3092.030712
 20
2055.158631
 42
0.087544
  0
VERTEX
  8
0
 10
3097.932392
 20
2056.965509
 42
0.060169
  0
VERTEX
  8
0
 10
3101.749818
 20
2059.532218
 42
0.042477
  0
VERTEX
  8
0
 10
3105.365662
 20
2063.233208
 42
0.042564
  0
VERTEX
  8
0
 10
3108.294764
 20
2067.480106
 42
0.061506
  0
VERTEX
  8
0
 10
3110.051328
 20
2071.683326
 42
0.152463
  0
VERTEX
  8
0
 10
3109.724944
 20
2082.705570
 42
0.124809
  0
VERTEX
  8
0
 10
3103.229949
 20
2092.607566
 42
0.124565
  0
VERTEX
  8
0
 10
3092.789633
 20
2098.231127
 42
0.151575
  0
SEQEND
  0
POLYLINE
  8
0
 66
1
 70
1
  0
VERTEX
  8
0
 10
2653.860254
 20
1865.492182
 42
0.067258
  0
VERTEX
  8
0
 10
2649.022378
 20
1863.186539
 42
0.042544
  0
VERTEX
  8
0
 10
2644.092877
 20
1859.328319
 42
0.042249
  0
VERTEX
  8
0
 10
2639.837637
 20
1854.641970
 42
0.061707
  0
VERTEX
  8
0
 10
2637.024604
 20
1849.835557
 42
0.127495
  0
VERTEX
  8
0
 10
2634.962175
 20
1836.428515
 42
0.124067
  0
VERTEX
  8
0
 10
2639.630745
 20
1823.553392
 42
0.122689
  0
VERTEX
  8
0
 10
2649.900428
 20
1814.327530
 42
0.123021
  0
VERTEX
  8
0
 10
2663.287513
 20
1811.009769
 42
0.109194
  0
VERTEX
  8
0
 10
2673.259738
 20
1813.233469
 42
0.091475
  0
VERTEX
  8
0
 10
2682.103306
 20
1819.538544
 42
0.090306
  0
VERTEX
  8
0
 10
2688.201465
 20
1828.668777
 42
0.102734
  0
VERTEX
  8
0
 10
2690.329104
 20
1838.953924
 42
0.123265
  0
VERTEX
  8
0
 10
2687.231300
 20
1851.288670
 42
0.113072
  0
VERTEX
  8
0
 10
2678.622700
 20
1861.172736
 42
0.112996
  0
VERTEX
  8
0
 10
2666.564701
 20
1866.328232
 42
0.122969
  0
SEQEND
  0
POLYLINE
  8
0
 66
1
 70
1
  0
VERTEX
  8
0
 10
3069.624424
 20
1449.051399
 42
0.029379
  0
VERTEX
  8
0
 10
3064.690860
 20
1446.729888
 42
0.036058
  0
VERTEX
  8
0
 10
3060.406671
 20
1443.979989
 42
0.037413
  0
VERTEX
  8
0
 10
3056.692713
 20
1440.738883
 42
0.036332
  0
VERTEX
  8
0
 10
3053.463558
 20
1436.950356
 42
0.033280
  0
VERTEX
  8
0
 10
3050.327889
 20
1432.022465
 42
0.047007
  0
VERTEX
  8
0
 10
3048.273198
 20
1427.245620
 42
0.045947
  0
VERTEX
  8
0
 10
3047.116956
 20
1422.085674
 42
0.029961
  0
VERTEX
  8
0
 10
3046.697649
 20
1415.992245
 42
0.015222
  0
VERTEX
  8
0
 10
3046.786134
 20
1411.904102
 42
0.034605
  0
VERTEX
  8
0
 10
3047.159695
 20
1408.838647
 42
0.037839
  0
VERTEX
  8
0
 10
3047.926606
 20
1406.024811
 42
0.021905
  0
VERTEX
  8
0
 10
3049.245846
 20
1402.774180
 42
0.062708
  0
VERTEX
  8
0
 10
3054.103834
 20
1394.931541
 42
0.060183
  0
VERTEX
  8
0
 10
3060.814530
 20
1388.414792
 42
0.060962
  0
VERTEX
  8
0
 10
3068.794367
 20
1383.752756
 42
0.067791
  0
VERTEX
  8
0
 10
3077.383533
 20
1381.360909
 42
0.079402
  0
VERTEX
  8
0
 10
3085.398686
 20
1381.539321
 42
0.052931
  0
VERTEX
  8
0
 10
3094.226631
 20
1384.139993
 42
0.052936
  0
VERTEX
  8
0
 10
3102.310651
 20
1388.535642
 42
0.079482
  0
VERTEX
  8
0
 10
3108.105715
 20
1394.070459
 42
0.024220
  0
VERTEX
  8
0
 10
3111.951259
 20
1399.675786
 42
0.057005
  0
VERTEX
  8
0
 10
3114.104308
 20
1404.261212
 42
0.057022
  0
VERTEX
  8
0
 10
3115.165967
 20
1409.213556
 42
0.024247
  0
VERTEX
  8
0
 10
3115.497237
 20
1416.000000
 42
0.009278
  0
VERTEX
  8
0
 10
3115.397897
 20
1421.438522
 42
0.035346
  0
VERTEX
  8
0
 10
3115.033989
 20
1424.811230
 42
0.045763
  0
VERTEX
  8
0
 10
3114.251646
 20
1427.642373
 42
0.023956
  0
VERTEX
  8
0
 10
3112.796427
 20
1431.000000
 42
0.044776
  0
VERTEX
  8
0
 10
3109.826471
 20
1435.883879
 42
0.038497
  0
VERTEX
  8
0
 10
3105.893981
 20
1440.433100
 42
0.037636
  0
VERTEX
  8
0
 10
3101.209646
 20
1444.425269
 42
0.038145
  0
VERTEX
  8
0
 10
3096.000000
 20
1447.650256
 42
0.062190
  0
VERTEX
  8
0
 10
3089.994767
 20
1449.868438
 42
0.044163
  0
VERTEX
  8
0
 10
3082.879632
 20
1450.880850
 42
0.044307
  0
VERTEX
  8
0
 10
3075.730041
 20
1450.627057
 42
0.064348
  0
SEQEND
  0
POLYLINE
  8
0
 66
1
 70
1
  0
VERTEX
  8
0
 10
856.406903
 20
1374.622853
 42
0.118150
  0
VERTEX
  8
0
 10
843.568180
 20
1367.958372
 42
0.123131
  0
VERTEX
  8
0
 10
835.379906
 20
1356.286400
 42
0.124025
  0
VERTEX
  8
0
 10
833.682762
 20
1342.203792
 42
0.120927
  0
VERTEX
  8
0
 10
838.824978
 20
1328.848617
 42
0.068200
  0
VERTEX
  8
0
 10
844.904101
 20
1322.249588
 42
0.071881
  0
VERTEX
  8
0
 10
852.433426
 20
1317.667661
 42
0.074023
  0
VERTEX
  8
0
 10
860.748482
 20
1315.496716
 42
0.079536
  0
VERTEX
  8
0
 10
869.123958
 20
1315.925320
 42
0.077150
  0
VERTEX
  8
0
 10
877.286451
 20
1319.033741
 42
0.069542
  0
VERTEX
  8
0
 10
884.452254
 20
1324.557548
 42
0.069013
  0
VERTEX
  8
0
 10
889.874358
 20
1331.879467
 42
0.073863
  0
VERTEX
  8
0
 10
892.945320
 20
1340.236607
 42
0.057648
  0
VERTEX
  8
0
 10
893.439844
 20
1345.745818
 42
0.048255
  0
VERTEX
  8
0
 10
892.724658
 20
1351.574970
 42
0.047128
  0
VERTEX
  8
0
 10
890.874018
 20
1357.298977
 42
0.048976
  0
VERTEX
  8
0
 10
888.002132
 20
1362.496901
 42
0.077280
  0
VERTEX
  8
0
 10
881.888948
 20
1368.968932
 42
0.073430
  0
VERTEX
  8
0
 10
873.996620
 20
1373.415260
 42
0.073742
  0
VERTEX
  8
0
 10
865.187858
 20
1375.378012
 42
0.079068
  0
SEQEND
  0
POLYLINE
  8
0
 66
1
 70
1
  0
VERTEX
  8
0
 10
2219.343746
 20
1374.969278
 42
0.065619
  0
VERTEX
  8
0
 10
2212.207104
 20
1372.534007
 42
0.060222
  0
VERTEX
  8
0
 10
2205.714841
 20
1368.278682
 42
0.060433
  0
VERTEX
  8
0
 10
2200.443567
 20
1362.615638
 42
0.067055
  0
VERTEX
  8
0
 10
2196.895611
 20
1356.042553
 42
0.057089
  0
VERTEX
  8
0
 10
2195.377024
 20
1350.019789
 42
0.047367
  0
VERTEX
  8
0
 10
2195.123920
 20
1343.410325
 42
0.048561
  0
VERTEX
  8
0
 10
2196.104561
 20
1337.069251
 42
0.070970
  0
VERTEX
  8
0
 10
2198.260919
 20
1331.855707
 42
0.125511
  0
VERTEX
  8
0
 10
2210.510904
 20
1319.561582
 42
0.146578
  0
VERTEX
  8
0
 10
2226.439431
 20
1315.555417
 42
0.148392
  0
VERTEX
  8
0
 10
2241.801626
 20
1320.977797
 42
0.129469
  0
VERTEX
  8
0
 10
2252.546532
 20
1334.283036
 42
0.146315
  0
VERTEX
  8
0
 10
2254.567006
 20
1349.586781
 42
0.132050
  0
VERTEX
  8
0
 10
2248.010859
 20
1364.193905
 42
0.130674
  0
VERTEX
  8
0
 10
2234.945377
 20
1373.649457
 42
0.142039
  0
SEQEND
  0
POLYLINE
  8
0
 66
1
 70
1
  0
VERTEX
  8
0
 10
796.010934
 20
1115.849355
 42
0.061650
  0
VERTEX
  8
0
 10
790.346390
 20
1112.760509
 42
0.042731
  0
VERTEX
  8
0
 10
784.797566
 20
1108.012537
 42
0.042768
  0
VERTEX
  8
0
 10
780.142840
 20
1102.397104
 42
0.062235
  0
VERTEX
  8
0
 10
777.162628
 20
1096.705115
 42
0.044537
  0
VERTEX
  8
0
 10
775.434980
 20
1090.438477
 42
0.052151
  0
VERTEX
  8
0
 10
774.968265
 20
1084.291709
 42
0.053362
  0
VERTEX
  8
0
 10
775.782140
 20
1078.301811
 42
0.050463
  0
VERTEX
  8
0
 10
777.850853
 20
1072.500000
 42
0.072439
  0
VERTEX
  8
0
 10
783.988055
 20
1063.293631
 42
0.082618
  0
VERTEX
  8
0
 10
792.259129
 20
1056.695813
 42
0.084795
  0
VERTEX
  8
0
 10
802.031780
 20
1053.246684
 42
0.081593
  0
VERTEX
  8
0
 10
812.531936
 20
1053.170267
 42
0.035804
  0
VERTEX
  8
0
 10
817.680197
 20
1054.360106
 42
0.044646
  0
VERTEX
  8
0
 10
822.222216
 20
1056.216181
 42
0.043965
  0
VERTEX
  8
0
 10
826.416979
 20
1058.875644
 42
0.033133
  0
VERTEX
  8
0
 10
830.526316
 20
1062.473684
 42
0.032920
  0
VERTEX
  8
0
 10
834.099046
 20
1066.550607
 42
0.043176
  0
VERTEX
  8
0
 10
836.759082
 20
1070.723844
 42
0.044411
  0
VERTEX
  8
0
 10
838.608770
 20
1075.193076
 42
0.038119
  0
VERTEX
  8
0
 10
839.756787
 20
1080.153223
 42
0.077809
  0
VERTEX
  8
0
 10
839.714489
 20
1090.562581
 42
0.081468
  0
VERTEX
  8
0
 10
836.471932
 20
1100.283878
 42
0.080457
  0
VERTEX
  8
0
 10
830.247656
 20
1108.555451
 42
0.073364
  0
VERTEX
  8
0
 10
821.545644
 20
1114.750433
 42
0.061321
  0
VERTEX
  8
0
 10
815.723002
 20
1116.873982
 42
0.046087
  0
VERTEX
  8
0
 10
808.960220
 20
1117.793359
 42
0.045883
  0
VERTEX
  8
0
 10
802.106410
 20
1117.459374
 42
0.058990
  0
SEQEND
  0
POLYLINE
  8
0
 66
1
 70
1
  0
VERTEX
  8
0
 10
2652.882283
 20
1026.680767
 42
0.029045
  0
VERTEX
  8
0
 10
2648.852153
 20
1024.899177
 42
0.030388
  0
VERTEX
  8
0
 10
2645.118505
 20
1022.686064
 42
0.032285
  0
VERTEX
  8
0
 10
2641.926023
 20
1020.206435
 42
0.048605
  0
VERTEX
  8
0
 10
2639.528894
 20
1017.626769
 42
0.057146
  0
VERTEX
  8
0
 10
2635.225093
 20
1010.404996
 42
0.076614
  0
VERTEX
  8
0
 10
2633.192597
 20
1003.070647
 42
0.079222
  0
VERTEX
  8
0
 10
2633.494577
 20
995.656587
 42
0.066244
  0
VERTEX
  8
0
 10
2636.058028
 20
988.199788
 42
0.057821
  0
VERTEX
  8
0
 10
2640.274929
 20
981.748329
 42
0.070274
  0
VERTEX
  8
0
 10
2645.622283
 20
976.904426
 42
0.070477
  0
VERTEX
  8
0
 10
2652.088668
 20
973.740841
 42
0.058612
  0
VERTEX
  8
0
 10
2659.602385
 20
972.239718
 42
0.018773
  0
VERTEX
  8
0
 10
2663.043203
 20
972.093202
 42
0.043653
  0
VERTEX
  8
0
 10
2665.613698
 20
972.305069
 42
0.044741
  0
VERTEX
  8
0
 10
2668.070108
 20
972.955659
 42
0.020636
  0
VERTEX
  8
0
 10
2671.131797
 20
974.212741
 42
0.030218
  0
VERTEX
  8
0
 10
2676.241955
 20
976.946849
 42
0.051326
  0
VERTEX
  8
0
 10
2680.085731
 20
979.894825
 42
0.052996
  0
VERTEX
  8
0
 10
2683.166382
 20
983.492886
 42
0.034708
  0
VERTEX
  8
0
 10
2685.941972
 20
988.199788
 42
0.042848
  0
VERTEX
  8
0
 10
2688.082314
 20
993.593411
 42
0.062088
  0
VERTEX
  8
0
 10
2688.938818
 20
998.640232
 42
0.060990
  0
VERTEX
  8
0
 10
2688.536157
 20
1003.809720
 42
0.039636
  0
VERTEX
  8
0
 10
2686.885198
 20
1009.577289
 42
0.050265
  0
VERTEX
  8
0
 10
2684.593619
 20
1014.220417
 42
0.044407
  0
VERTEX
  8
0
 10
2681.336871
 20
1018.525265
 42
0.043948
  0
VERTEX
  8
0
 10
2677.332428
 20
1022.229955
 42
0.046772
  0
VERTEX
  8
0
 10
2672.820903
 20
1025.091368
 42
0.060887
  0
VERTEX
  8
0
 10
2668.329509
 20
1026.731471
 42
0.037255
  0
VERTEX
  8
0
 10
2662.748842
 20
1027.597879
 42
0.037518
  0
VERTEX
  8
0
 10
2657.211639
 20
1027.623054
 42
0.072052
  0
SEQEND
  0
POLYLINE
  8
0
 66
1
 70
1
  0
VERTEX
  8
0
 10
2263.920478
 20
1018.718404
 42
0.039505
  0
VERTEX
  8
0
 10
2257.147978
 20
1015.204603
 42
0.057855
  0
VERTEX
  8
0
 10
2251.903707
 20
1011.022838
 42
0.056417
  0
VERTEX
  8
0
 10
2247.666330
 20
1005.667168
 42
0.035381
  0
VERTEX
  8
0
 10
2243.931760
 20
998.595917
 42
0.028115
  0
VERTEX
  8
0
 10
2242.823628
 20
995.642523
 42
0.043871
  0
VERTEX
  8
0
 10
2242.244255
 20
992.990045
 42
0.033689
  0
VERTEX
  8
0
 10
2242.053504
 20
989.815198
 42
0.010108
  0
VERTEX
  8
0
 10
2242.187032
 20
984.971241
 42
0.011181
  0
VERTEX
  8
0
 10
2242.544343
 20
979.884999
 42
0.042205
  0
VERTEX
  8
0
 10
2243.105641
 20
976.744393
 42
0.049868
  0
VERTEX
  8
0
 10
2244.136824
 20
974.012024
 42
0.020155
  0
VERTEX
  8
0
 10
2246.051984
 20
970.513238
 42
0.056414
  0
VERTEX
  8
0
 10
2251.777628
 20
963.041263
 42
0.065287
  0
VERTEX
  8
0
 10
2258.779375
 20
957.449992
 42
0.067298
  0
VERTEX
  8
0
 10
2266.794213
 20
953.975288
 42
0.065952
  0
VERTEX
  8
0
 10
2275.500000
 20
952.722065
 42
0.033304
  0
VERTEX
  8
0
 10
2280.700306
 20
953.010071
 42
0.045140
  0
VERTEX
  8
0
 10
2285.297095
 20
954.000070
 42
0.043117
  0
VERTEX
  8
0
 10
2289.798190
 20
955.842514
 42
0.026932
  0
VERTEX
  8
0
 10
2294.720693
 20
958.717152
 42
0.112075
  0
VERTEX
  8
0
 10
2305.083368
 20
969.507737
 42
0.112358
  0
VERTEX
  8
0
 10
2309.759499
 20
983.705040
 42
0.113209
  0
VERTEX
  8
0
 10
2307.817014
 20
998.441739
 42
0.115166
  0
VERTEX
  8
0
 10
2299.647593
 20
1010.753560
 42
0.033028
  0
VERTEX
  8
0
 10
2294.282373
 20
1015.178119
 42
0.052072
  0
VERTEX
  8
0
 10
2289.106275
 20
1018.138487
 42
0.053790
  0
VERTEX
  8
0
 10
2283.556401
 20
1019.904021
 42
0.038213
  0
VERTEX
  8
0
 10
2277.071291
 20
1020.713201
 42
0.013939
  0
VERTEX
  8
0
 10
2272.894409
 20
1020.796204
 42
0.035648
  0
VERTEX
  8
0
 10
2269.879727
 20
1020.556722
 42
0.040111
  0
VERTEX
  8
0
 10
2267.142186
 20
1019.913673
 42
0.022188
  0
SEQEND
  0
POLYLINE
  8
0
 66
1
 70
1
  0
VERTEX
  8
0
 10
448.702222
 20
997.958445
 42
0.101728
  0
VERTEX
  8
0
 10
436.972340
 20
993.418796
 42
0.094402
  0
VERTEX
  8
0
 10
427.620272
 20
984.525329
 42
0.095395
  0
VERTEX
  8
0
 10
422.261746
 20
972.904797
 42
0.106563
  0
VERTEX
  8
0
 10
421.898101
 20
960.593403
 42
0.032399
  0
VERTEX
  8
0
 10
423.169367
 20
955.563818
 42
0.042032
  0
VERTEX
  8
0
 10
425.004608
 20
951.178661
 42
0.041636
  0
VERTEX
  8
0
 10
427.563060
 20
947.130326
 42
0.030907
  0
VERTEX
  8
0
 10
431.007770
 20
943.111431
 42
0.099836
  0
VERTEX
  8
0
 10
441.468687
 20
935.933625
 42
0.100229
  0
VERTEX
  8
0
 10
453.879100
 20
933.384686
 42
0.099758
  0
VERTEX
  8
0
 10
466.351177
 20
935.862038
 42
0.097926
  0
VERTEX
  8
0
 10
476.983680
 20
942.983680
 42
0.092273
  0
VERTEX
  8
0
 10
483.877075
 20
953.030083
 42
0.096133
  0
VERTEX
  8
0
 10
486.565270
 20
964.739125
 42
0.096871
  0
VERTEX
  8
0
 10
484.672738
 20
976.530494
 42
0.095293
  0
VERTEX
  8
0
 10
478.474378
 20
986.817273
 42
0.035383
  0
VERTEX
  8
0
 10
474.176229
 20
990.966324
 42
0.042888
  0
VERTEX
  8
0
 10
469.589789
 20
994.180684
 42
0.044150
  0
VERTEX
  8
0
 10
464.640987
 20
996.494323
 42
0.041595
  0
VERTEX
  8
0
 10
459.263634
 20
997.959062
 42
0.002089
  0
VERTEX
  8
0
 10
457.099837
 20
998.349719
 42
0.003443
  0
VERTEX
  8
0
 10
455.267286
 20
998.659674
 42
0.000505
  0
VERTEX
  8
0
 10
453.645926
 20
998.920756
 42
0.313695
  0
VERTEX
  8
0
 10
453.566341
 20
998.882381
 42
-0.220289
  0
VERTEX
  8
0
 10
453.487517
 20
998.825680
 42
-0.000557
  0
VERTEX
  8
0
 10
452.110140
 20
998.562457
 42
-0.003282
  0
VERTEX
  8
0
 10
450.546401
 20
998.276046
 42
-0.002020
  0
SEQEND
  0
POLYLINE
  8
0
 66
1
 70
1
  0
VERTEX
  8
0
 10
1982.343746
 20
582.987418
 42
0.114089
  0
VERTEX
  8
0
 10
1969.535932
 20
577.126129
 42
0.107956
  0
VERTEX
  8
0
 10
1960.293273
 20
566.138095
 42
0.109532
  0
VERTEX
  8
0
 10
1956.559305
 20
552.436812
 42
0.120522
  0
VERTEX
  8
0
 10
1959.180514
 20
538.953924
 42
0.080557
  0
VERTEX
  8
0
 10
1965.245394
 20
529.947926
 42
0.078768
  0
VERTEX
  8
0
 10
1973.887781
 20
523.238433
 42
0.081694
  0
VERTEX
  8
0
 10
1983.879906
 20
519.704815
 42
0.097343
  0
VERTEX
  8
0
 10
1993.859010
 20
519.876343
 42
0.105583
  0
VERTEX
  8
0
 10
2007.296429
 20
525.903711
 42
0.111174
  0
VERTEX
  8
0
 10
2016.805995
 20
536.804893
 42
0.114746
  0
VERTEX
  8
0
 10
2020.539917
 20
550.434718
 42
0.118295
  0
VERTEX
  8
0
 10
2017.808664
 20
564.147962
 42
0.082531
  0
VERTEX
  8
0
 10
2011.701643
 20
573.136517
 42
0.080428
  0
VERTEX
  8
0
 10
2002.966350
 20
579.760817
 42
0.082001
  0
VERTEX
  8
0
 10
1992.746929
 20
583.200472
 42
0.091005
  0
SEQEND
  0
ENDSEC
  0
EOF
